{
.appVersion = "3260";
.formatVersion = 3;
DisplayStrings = (
"ܕ",
":",
"1",
"٠",
"٠",
"٠",
"٠",
"٠",
"0",
"",
"2",
"3",
"5",
"6",
"7",
"8",
"4",
"ܴ",
"ܶ",
"ܷ",
"̃",
"̰",
"̱",
"̄"
);
customParameters = (
{
name = panose;
value = (
2,
11,
5,
2,
4,
5,
4,
2,
2,
4
);
},
{
name = unicodeRanges;
value = (
0,
1,
6,
13,
31,
38,
45,
46,
71
);
},
{
name = fsType;
value = (
);
},
{
name = blueScale;
value = 0.050000000745;
},
{
name = glyphOrder;
value = (
.notdef,
NULL,
CR,
space,
uni00A0,
uni200C,
uni200D,
uni200E,
uni200F,
uni0710,
uni0710.fin3,
uni0710.fin2,
uni0710.fina,
uni0710.med2,
uni0711,
uni0712,
uni0712.fina,
uni0712.medi,
uni0712.init,
uni0713,
uni0713.fina,
uni0713.medi,
uni0713.init,
uni0714,
uni0714.fina,
uni0714.medi,
uni0714.init,
uni0715,
uni0715.fina,
uni0716,
uni0716.fina,
uni0717,
uni0717.fina,
uni0718,
uni0718.fina,
uni0719,
uni0719.fina,
uni071A,
uni071A.fina,
uni071A.medi,
uni071A.init,
uni071B,
uni071B.fina,
uni071B.medi,
uni071B.init,
uni071C,
uni071C.fina,
uni071C.medi,
uni071C.init,
uni071D,
uni071D.fina,
uni071D.medi,
uni071D.init,
uni071E,
uni071F,
uni071F.fina,
uni071F.medi,
uni071F.init,
uni0720,
uni0720.fina,
uni0720.medi,
uni0720.init,
uni0721,
uni0721.fina,
uni0721.medi,
uni0721.init,
uni0722,
uni0722.fina,
uni0722.medi,
uni0722.init,
uni0723,
uni0723.fina,
uni0723.medi,
uni0723.init,
uni0724,
uni0724.fina,
uni0724.medi,
uni0724.init,
uni0725,
uni0725.fina,
uni0725.medi,
uni0725.init,
uni0726,
uni0726.fina,
uni0726.medi,
uni0726.init,
uni0727,
uni0727.fina,
uni0727.medi,
uni0727.init,
uni0728,
uni0728.fina,
uni0729,
uni0729.fina,
uni0729.medi,
uni0729.init,
uni072A,
uni072A.fina,
uni072B,
uni072B.fina,
uni072B.medi,
uni072B.init,
uni072C,
uni072C.fina,
uni0640,
uni0700,
uni0701,
uni0702,
uni0703,
uni0704,
uni0705,
uni0706,
uni0707,
uni0708,
uni0709,
uni070A,
uni070B,
uni070C,
uni070D,
uni070F,
uni0730,
uni0731,
uni0732,
uni0733,
uni0734,
uni0735,
uni0736,
uni0737,
uni0738,
uni0739,
uni073A,
uni073B,
uni073C,
uni073D,
uni073E,
uni073F,

glyphs = (
{
glyphname = .notdef;
layers = (
{
hints = (
{
horizontal = 1;
place = (332,25);
type = Stem;
},
{
horizontal = 1;
place = (0,26);
type = Stem;
},
{
place = (227,26);
type = Stem;
},
{
place = (47,26);
type = Stem;
}
);
layerId = m01;
shapes = (
{
closed = 1;
nodes = (
(47,0,l),
(253,0,l),
(253,357,l),
(47,357,l)
);
},
{
closed = 1;
nodes = (
(73,26,l),
(73,332,l),
(227,332,l),
(227,26,l)
);
}
);
width = 300;
}
);
note = .notdef;
},
{
glyphname = uni200E;
lastChange = "2024-07-18 07:53:51 +0000";
layers = (
{
hints = (
{
horizontal = 1;
place = (363,-20);
target = down;
type = TopGhost;
},
{
horizontal = 1;
place = (302,17);
type = Stem;
},
{
horizontal = 1;
place = (0,21);
target = up;
type = BottomGhost;
},
{
place = (-9,18);
type = Stem;
}
);
layerId = m01;
shapes = (
{
closed = 1;
nodes = (
(40,351,l),
(74,319,l),
(-9,319,l),
(-9,0,l),
(9,0,l),
(9,302,l),
(74,302,l),
(40,270,l),
(52,258,l),
(105,310,l),
(52,363,l)
);
}
);
width = 0;
}
);
note = uni200E;
unicode = 8206;
},
{
glyphname = uni200F;
lastChange = "2024-07-18 07:53:51 +0000";
layers = (
{
hints = (
{
horizontal = 1;
place = (363,-20);
target = down;
type = TopGhost;
},
{
horizontal = 1;
place = (302,17);
type = Stem;
},
{
horizontal = 1;
place = (0,21);
target = up;
type = BottomGhost;
},
{
place = (-9,18);
type = Stem;
}
);
layerId = m01;
shapes = (
{
closed = 1;
nodes = (
(-40,270,l),
(-73,302,l),
(-9,302,l),
(-9,0,l),
(9,0,l),
(9,319,l),
(-73,319,l),
(-40,351,l),
(-52,363,l),
(-105,310,l),
(-52,258,l)
);
}
);
width = 0;
}
);
note = uni200F;
unicode = 8207;
},
{
glyphname = uni0710;
layers = (
{
anchors = (
{
name = bottom;
pos = (278,-20);
},
{
name = top;
pos = (278,323);
}
);
hints = (
{
horizontal = 1;
place = (202,101);
type = Stem;
},
{
horizontal = 1;
place = (0,21);
target = up;
type = BottomGhost;
},
{
place = (253,101);
type = Stem;
},
{
place = (51,101);
type = Stem;
}
);
layerId = m01;
shapes = (
{
closed = 1;
nodes = (
(557,303,l),
(51,303,l),
(51,0,l),
(152,0,l),
(152,202,l),
(253,202,l),
(253,0,l),
(354,0,l),
(354,202,l),
(557,202,l)
);
}
);
width = 505;
}
);
note = uni0710;
unicode = 1808;
},
{
glyphname = uni0710.fin3;
lastChange = "2024-07-18 07:53:51 +0000";
layers = (
{
anchors = (
{
name = bottom;
pos = (278,-20);
},
{
name = top;
pos = (278,323);
}
);
hints = (
{
horizontal = 1;
place = (202,101);
type = Stem;
},
{
horizontal = 1;
place = (0,21);
target = up;
type = BottomGhost;
},
{
place = (253,101);
type = Stem;
},
{
place = (51,101);
type = Stem;
}
);
layerId = m01;
shapes = (
{
closed = 1;
nodes = (
(557,303,l),
(51,303,l),
(51,0,l),
(152,0,l),
(152,202,l),
(253,202,l),
(253,0,l),
(354,0,l),
(354,202,l),
(557,202,l)
);
}
);
width = 505;
}
);
note = uni0710.fin3;
},
{
glyphname = uni0710.fin2;
lastChange = "2024-07-18 07:53:51 +0000";
layers = (
{
anchors = (
{
name = bottom;
pos = (278,-20);
},
{
name = top;
pos = (278,323);
}
);
hints = (
{
horizontal = 1;
place = (202,101);
type = Stem;
},
{
horizontal = 1;
place = (0,21);
target = up;
type = BottomGhost;
},
{
place = (253,101);
type = Stem;
},
{
place = (51,101);
type = Stem;
}
);
layerId = m01;
shapes = (
{
closed = 1;
nodes = (
(557,303,l),
(51,303,l),
(51,0,l),
(152,0,l),
(152,202,l),
(253,202,l),
(253,0,l),
(354,0,l),
(354,202,l),
(557,202,l)
);
}
);
width = 505;
}
);
note = uni0710.fin2;
},
{
glyphname = uni0710.fina;
lastChange = "2024-07-18 07:53:51 +0000";
layers = (
{
anchors = (
{
name = bottom;
pos = (278,-20);
},
{
name = top;
pos = (278,323);
}
);
hints = (
{
horizontal = 1;
place = (202,101);
type = Stem;
},
{
horizontal = 1;
place = (0,101);
type = Stem;
},
{
place = (253,101);
type = Stem;
},
{
place = (51,101);
type = Stem;
}
);
layerId = m01;
shapes = (
{
closed = 1;
nodes = (
(557,303,l),
(51,303,l),
(51,0,l),
(152,0,l),
(152,202,l),
(253,202,l),
(253,0,l),
(556,0,l),
(556,101,l),
(354,101,l),
(354,202,l),
(557,202,l)
);
}
);
width = 556;
}
);
note = uni0710.fina;
},
{
glyphname = uni0710.med2;
lastChange = "2024-07-18 07:53:51 +0000";
layers = (
{
anchors = (
{
name = bottom;
pos = (278,-20);
},
{
name = top;
pos = (278,323);
}
);
hints = (
{
horizontal = 1;
place = (202,101);
type = Stem;
},
{
horizontal = 1;
place = (0,101);
type = Stem;
},
{
place = (253,101);
type = Stem;
},
{
place = (51,101);
type = Stem;
}
);
layerId = m01;
shapes = (
{
closed = 1;
nodes = (
(557,303,l),
(51,303,l),
(51,0,l),
(152,0,l),
(152,202,l),
(253,202,l),
(253,0,l),
(557,0,l),
(557,101,l),
(354,101,l),
(354,202,l),
(557,202,l)
);
}
);
width = 556;
}
);
note = uni0710.med2;
},
{
glyphname = uni0711;
layers = (
{
anchors = (
{
name = _top;
pos = (51,463);
}
);
hints = (
{
horizontal = 1;
place = (619,53);
type = Stem;
},
{
horizontal = 1;
place = (505,167);
type = Stem;
},
{
place = (50,55);
type = Stem;
},
{
place = (-58,55);
type = Stem;
}
);
layerId = m01;
shapes = (
{
closed = 1;
nodes = (
(101,546,l),
(0,546,l),
(0,483,l),
(21,483,l),
(21,526,l),
(41,526,l),
(40,483,l),
(61,483,l),
(61,526,l),
(101,526,l)
);
}
);
width = 101;
}
);
note = uni0711;
unicode = 1809;
},
{
glyphname = uni0712;
lastChange = "2024-07-18 07:53:51 +0000";
layers = (
{
anchors = (
{
name = bottom;
pos = (354,-20);
},
{
name = top;
pos = (354,323);
}
);
hints = (
{
horizontal = 1;
place = (202,101);
type = Stem;
},
{
horizontal = 1;
place = (0,101);
type = Stem;
},
{
place = (455,101);
type = Stem;
}
);
layerId = m01;
shapes = (
{
closed = 1;
nodes = (
(455,101,l),
(51,101,l),
(51,0,l),
(556,0,l),
(556,303,l),
(152,303,l),
(152,202,l),
(455,202,l)
);
}
);
width = 556;
}
);
note = uni0712;
unicode = 1810;
},
{
glyphname = uni0712.fina;
lastChange = "2024-07-18 07:53:51 +0000";
layers = (
{
anchors = (
{
name = bottom;
pos = (354,-20);
},
{
name = top;
pos = (354,323);
}
);
hints = (
{
horizontal = 1;
place = (202,101);
type = Stem;
},
{
horizontal = 1;
place = (0,101);
type = Stem;
},
{
place = (455,101);
type = Stem;
}
);
layerId = m01;
shapes = (
{
closed = 1;
nodes = (
(455,101,l),
(51,101,l),
(51,0,l),
(606,0,l),
(606,101,l),
(556,101,l),
(556,303,l),
(152,303,l),
(152,202,l),
(455,202,l)
);
}
);
width = 606;
}
);
note = uni0712.fina;
},
{
glyphname = uni0712.medi;
lastChange = "2024-07-18 07:53:51 +0000";
layers = (
{
anchors = (
{
name = bottom;
pos = (303,-20);
},
{
name = top;
pos = (303,323);
}
);
hints = (
{
horizontal = 1;
place = (202,101);
type = Stem;
},
{
horizontal = 1;
place = (0,101);
type = Stem;
},
{
place = (404,101);
type = Stem;
}
);
layerId = m01;
shapes = (
{
closed = 1;
nodes = (
(404,101,l),
(-50,101,l),
(-50,0,l),
(555,0,l),
(555,101,l),
(505,101,l),
(505,303,l),
(101,303,l),
(101,202,l),
(404,202,l)
);
}
);
width = 555;
}
);
note = uni0712.medi;
},
{
glyphname = uni0712.init;
lastChange = "2024-07-18 07:53:51 +0000";
layers = (
{
anchors = (
{
name = bottom;
pos = (303,-20);
},
{
name = top;
pos = (303,323);
}
);
hints = (
{
horizontal = 1;
place = (202,101);
type = Stem;
},
{
horizontal = 1;
place = (0,101);
type = Stem;
},
{
place = (404,101);
type = Stem;
}
);
layerId = m01;
shapes = (
{
closed = 1;
nodes = (
(404,101,l),
(-50,101,l),
(-50,0,l),
(505,0,l),
(505,303,l),
(101,303,l),
(101,202,l),
(404,202,l)
);
}
);
width = 505;
}
);
note = uni0712.init;
},
{
glyphname = uni0713;
lastChange = "2024-07-18 07:53:51 +0000";
layers = (
{
anchors = (
{
name = bottom;
pos = (253,-20);
},
{
name = top;
pos = (303,323);
}
);
hints = (
{
horizontal = 1;
place = (0,101);
type = Stem;
},
{
place = (354,101);
type = Stem;
},
{
place = (253,101);
type = Stem;
}
);
layerId = m01;
shapes = (
{
closed = 1;
nodes = (
(51,0,l),
(354,0,l),
(354,-202,l),
(455,-202,l),
(455,101,l),
(354,101,l),
(354,303,l),
(253,303,l),
(253,101,l),
(51,101,l)
);
}
);
width = 455;
}
);
note = uni0713;
unicode = 1811;
},
{
glyphname = uni0713.fina;
lastChange = "2024-07-18 07:53:51 +0000";
layers = (
{
anchors = (
{
name = bottom;
pos = (253,-20);
},
{
name = top;
pos = (303,323);
}
);
hints = (
{
horizontal = 1;
place = (0,101);
type = Stem;
},
{
place = (354,101);
type = Stem;
},
{
place = (253,101);
type = Stem;
}
);
layerId = m01;
shapes = (
{
closed = 1;
nodes = (
(51,0,l),
(354,0,l),
(354,-202,l),
(455,-202,l),
(455,0,l),
(505,0,l),
(505,101,l),
(354,101,l),
(354,303,l),
(253,303,l),
(253,101,l),
(51,101,l)
);
}
);
width = 505;
}
);
note = uni0713.fina;
},
{
glyphname = uni0713.medi;
lastChange = "2024-07-18 07:53:51 +0000";
layers = (
{
anchors = (
{
name = bottom;
pos = (202,-20);
},
{
name = top;
pos = (252,323);
}
);
hints = (
{
horizontal = 1;
place = (0,101);
type = Stem;
},
{
place = (303,101);
type = Stem;
},
{
place = (202,101);
type = Stem;
}
);
layerId = m01;
shapes = (
{
closed = 1;
nodes = (
(-50,0,l),
(303,0,l),
(303,-202,l),
(404,-202,l),
(404,0,l),
(455,0,l),
(455,101,l),
(303,101,l),
(303,303,l),
(202,303,l),
(202,101,l),
(-50,101,l)
);
}
);
width = 454;
}
);
note = uni0713.medi;
},
{
glyphname = uni0713.init;
lastChange = "2024-07-18 07:53:51 +0000";
layers = (
{
anchors = (
{
name = bottom;
pos = (202,-20);
},
{
name = top;
pos = (252,323);
}
);
hints = (
{
horizontal = 1;
place = (0,101);
type = Stem;
},
{
place = (303,101);
type = Stem;
},
{
place = (202,101);
type = Stem;
}
);
layerId = m01;
shapes = (
{
closed = 1;
nodes = (
(-50,0,l),
(303,0,l),
(303,-202,l),
(404,-202,l),
(404,101,l),
(303,101,l),
(303,303,l),
(202,303,l),
(202,101,l),
(-50,101,l)
);
}
);
width = 404;
}
);
note = uni0713.init;
},
{
glyphname = uni0714;
lastChange = "2024-07-18 07:53:51 +0000";
layers = (
{
anchors = (
{
name = bottom;
pos = (253,-20);
},
{
name = top;
pos = (303,323);
}
);
hints = (
{
horizontal = 1;
place = (0,101);
type = Stem;
},
{
place = (354,101);
type = Stem;
},
{
place = (253,101);
type = Stem;
}
);
layerId = m01;
shapes = (
{
closed = 1;
nodes = (
(51,0,l),
(354,0,l),
(354,-202,l),
(455,-202,l),
(455,101,l),
(354,101,l),
(354,303,l),
(253,303,l),
(253,152,l),
(202,152,l),
(202,101,l),
(51,101,l)
);
}
);
width = 455;
}
);
note = uni0714;
unicode = 1812;
},
{
glyphname = uni0714.fina;
lastChange = "2024-07-18 07:53:51 +0000";
layers = (
{
anchors = (
{
name = bottom;
pos = (253,-20);
},
{
name = top;
pos = (303,323);
}
);
hints = (
{
horizontal = 1;
place = (0,101);
type = Stem;
},
{
place = (354,101);
type = Stem;
},
{
place = (253,101);
type = Stem;
}
);
layerId = m01;
shapes = (
{
closed = 1;
nodes = (
(51,0,l),
(354,0,l),
(354,-202,l),
(455,-202,l),
(455,0,l),
(505,0,l),
(505,101,l),
(354,101,l),
(354,303,l),
(253,303,l),
(253,116,l),
(249,126,o),
(241,131,o),
(229,131,cs),
(214,131,o),
(205,121,o),
(205,102,cs),
(205,101,l),
(51,101,l)
);
}
);
width = 473;
}
);
note = uni0714.fina;
},
{
glyphname = uni0714.medi;
lastChange = "2024-07-18 07:53:51 +0000";
layers = (
{
anchors = (
{
name = bottom;
pos = (202,-20);
},
{
name = top;
pos = (252,323);
}
);
hints = (
{
horizontal = 1;
place = (0,101);
type = Stem;
},
{
place = (303,101);
type = Stem;
},
{
place = (202,101);
type = Stem;
},
{
place = (17,51);
type = Stem;
},
{
place = (-50,118);
type = Stem;
}
);
layerId = m01;
shapes = (
{
closed = 1;
nodes = (
(-50,0,l),
(303,0,l),
(303,-202,l),
(404,-202,l),
(404,0,l),
(455,0,l),
(455,101,l),
(303,101,l),
(303,303,l),
(202,303,l),
(202,101,l),
(68,101,l),
(68,102,ls),
(68,121,o),
(58,131,o),
(42,131,cs),
(26,131,o),
(17,121,o),
(17,102,cs),
(17,101,l),
(-50,101,l)
);
}
);
width = 286;
}
);
note = uni0714.medi;
},
{
glyphname = uni0714.init;
lastChange = "2024-07-18 07:53:51 +0000";
layers = (
{
anchors = (
{
name = bottom;
pos = (202,-20);
},
{
name = top;
pos = (252,323);
}
);
hints = (
{
horizontal = 1;
place = (0,101);
type = Stem;
},
{
place = (303,101);
type = Stem;
},
{
place = (202,101);
type = Stem;
}
);
layerId = m01;
shapes = (
{
closed = 1;
nodes = (
(-51,0,l),
(303,0,l),
(303,-202,l),
(404,-202,l),
(404,101,l),
(303,101,l),
(303,303,l),
(202,303,l),
(202,152,l),
(152,152,l),
(152,101,l),
(-51,101,l)
);
}
);
width = 404;
}
);
note = uni0714.init;
},
{
glyphname = uni0715;
lastChange = "2024-07-18 07:53:51 +0000";
layers = (
{
anchors = (
{
name = bottom;
pos = (203,-20);
},
{
name = top;
pos = (203,323);
}
);
hints = (
{
horizontal = 1;
place = (202,101);
type = Stem;
},
{
horizontal = 1;
place = (0,101);
type = Stem;
},
{
place = (253,101);
type = Stem;
},
{
place = (51,101);
type = Stem;
}
);
layerId = m01;
shapes = (
{
closed = 1;
nodes = (
(152,101,l),
(51,101,l),
(51,0,l),
(152,0,l)
);
},
{
closed = 1;
nodes = (
(51,202,l),
(253,202,l),
(253,0,l),
(354,0,l),
(354,303,l),
(51,303,l)
);
}
);
width = 354;
}
);
note = uni0715;
unicode = 1813;
},
{
glyphname = uni0715.fina;
lastChange = "2024-07-18 07:53:51 +0000";
layers = (
{
anchors = (
{
name = bottom;
pos = (203,-20);
},
{
name = top;
pos = (203,323);
}
);
hints = (
{
horizontal = 1;
place = (202,101);
type = Stem;
},
{
horizontal = 1;
place = (0,101);
type = Stem;
},
{
place = (253,101);
type = Stem;
},
{
place = (51,101);
type = Stem;
}
);
layerId = m01;
shapes = (
{
closed = 1;
nodes = (
(152,101,l),
(51,101,l),
(51,0,l),
(152,0,l)
);
},
{
closed = 1;
nodes = (
(51,202,l),
(253,202,l),
(253,0,l),
(404,0,l),
(404,101,l),
(354,101,l),
(354,303,l),
(51,303,l)
);
}
);
width = 404;
}
);
note = uni0715.fina;
},
{
glyphname = uni0716;
lastChange = "2024-07-18 07:53:51 +0000";
layers = (
{
anchors = (
{
name = bottom;
pos = (203,-20);
},
{
name = top;
pos = (203,323);
}
);
hints = (
{
horizontal = 1;
place = (202,101);
type = Stem;
},
{
horizontal = 1;
place = (0,21);
target = up;
type = BottomGhost;
},
{
place = (253,101);
type = Stem;
}
);
layerId = m01;
shapes = (
{
closed = 1;
nodes = (
(51,202,l),
(253,202,l),
(253,0,l),
(354,0,l),
(354,303,l),
(51,303,l)
);
}
);
width = 354;
}
);
note = uni0716;
unicode = 1814;
},
{
glyphname = uni0716.fina;
lastChange = "2024-07-18 07:53:51 +0000";
layers = (
{
anchors = (
{
name = bottom;
pos = (203,-20);
},
{
name = top;
pos = (203,323);
}
);
hints = (
{
horizontal = 1;
place = (202,101);
type = Stem;
},
{
horizontal = 1;
place = (0,101);
type = Stem;
},
{
place = (253,101);
type = Stem;
}
);
layerId = m01;
shapes = (
{
closed = 1;
nodes = (
(51,202,l),
(253,202,l),
(253,0,l),
(404,0,l),
(404,101,l),
(354,101,l),
(354,303,l),
(51,303,l)
);
}
);
width = 404;
}
);
note = uni0716.fina;
},
{
glyphname = uni0717;
lastChange = "2024-07-18 07:53:51 +0000";
layers = (
{
anchors = (
{
name = bottom;
pos = (305,-20);
},
{
name = top;
pos = (305,323);
}
);
hints = (
{
horizontal = 1;
place = (202,101);
type = Stem;
},
{
horizontal = 1;
place = (0,101);
type = Stem;
},
{
place = (455,101);
type = Stem;
},
{
place = (254,101);
type = Stem;
},
{
place = (52,102);
type = Stem;
}
);
layerId = m01;
shapes = (
{
closed = 1;
nodes = (
(455,101,l),
(405,101,l),
(405,0,l),
(556,0,l),
(556,303,l),
(51,303,l),
(52,0,l),
(203,0,l),
(203,101,l),
(153,101,l),
(153,202,l),
(254,202,l),
(254,0,l),
(355,0,l),
(355,202,l),
(455,202,l)
);
}
);
width = 556;
}
);
note = uni0717;
unicode = 1815;
},
{
glyphname = uni0717.fina;
lastChange = "2024-07-18 07:53:51 +0000";
layers = (
{
anchors = (
{
name = bottom;
pos = (304,-20);
},
{
name = top;
pos = (304,323);
}
);
hints = (
{
horizontal = 1;
place = (202,101);
type = Stem;
},
{
horizontal = 1;
place = (0,104);
type = Stem;
},
{
horizontal = 1;
place = (0,101);
type = Stem;
},
{
place = (455,101);
type = Stem;
},
{
place = (254,101);
type = Stem;
},
{
place = (52,102);
type = Stem;
}
);
layerId = m01;
shapes = (
{
closed = 1;
nodes = (
(455,104,l),
(421,104,l),
(421,0,l),
(607,0,l),
(607,101,l),
(556,101,l),
(556,303,l),
(51,303,l),
(52,0,l),
(203,0,l),
(203,101,l),
(153,101,l),
(153,202,l),
(254,202,l),
(254,0,l),
(355,0,l),
(355,202,l),
(455,202,l)
);
}
);
width = 606;
}
);
note = uni0717.fina;
},
{
glyphname = uni0718;
lastChange = "2024-07-18 07:53:51 +0000";
layers = (
{
anchors = (
{
name = bottom;
pos = (203,-20);
},
{
name = top;
pos = (203,323);
}
);
hints = (
{
horizontal = 1;
place = (190,111);
type = Stem;
},
{
horizontal = 1;
place = (1,100);
type = Stem;
},
{
place = (253,101);
type = Stem;
},
{
place = (51,101);
type = Stem;
}
);
layerId = m01;
shapes = (
{
closed = 1;
nodes = (
(253,190,l),
(253,1,l),
(354,1,l),
(354,303,l),
(51,303,l),
(51,0,l),
(202,0,l),
(202,101,l),
(152,101,l),
(152,190,l)
);
}
);
width = 354;
}
);
note = uni0718;
unicode = 1816;
},
{
glyphname = uni0718.fina;
lastChange = "2024-07-18 07:53:51 +0000";
layers = (
{
anchors = (
{
name = bottom;
pos = (203,-20);
},
{
name = top;
pos = (203,323);
}
);
hints = (
{
horizontal = 1;
place = (190,111);
type = Stem;
},
{
horizontal = 1;
place = (0,101);
type = Stem;
},
{
place = (253,101);
type = Stem;
},
{
place = (51,101);
type = Stem;
}
);
layerId = m01;
shapes = (
{
closed = 1;
nodes = (
(253,190,l),
(253,0,l),
(404,0,l),
(404,101,l),
(354,101,l),
(354,303,l),
(51,303,l),
(51,0,l),
(202,0,l),
(202,101,l),
(152,101,l),
(152,190,l)
);
}
);
width = 404;
}
);
note = uni0718.fina;
},
{
glyphname = uni0719;
lastChange = "2024-07-18 07:53:51 +0000";
layers = (
{
anchors = (
{
name = bottom;
pos = (102,-121);
},
{
name = top;
pos = (102,222);
}
);
hints = (
{
horizontal = 1;
place = (-101,303);
type = Stem;
},
{
place = (51,101);
type = Stem;
}
);
layerId = m01;
shapes = (
{
closed = 1;
nodes = (
(152,202,l),
(51,202,l),
(51,-101,l),
(152,-101,l)
);
}
);
width = 152;
}
);
note = uni0719;
unicode = 1817;
},
{
glyphname = uni0719.fina;
lastChange = "2024-07-18 07:53:51 +0000";
layers = (
{
anchors = (
{
name = bottom;
pos = (102,-121);
},
{
name = top;
pos = (102,222);
}
);
hints = (
{
horizontal = 1;
place = (0,101);
type = Stem;
},
{
place = (51,101);
type = Stem;
}
);
layerId = m01;
shapes = (
{
closed = 1;
nodes = (
(152,202,l),
(51,202,l),
(51,-101,l),
(152,-101,l),
(152,0,l),
(202,0,l),
(202,101,l),
(152,101,l)
);
}
);
width = 202;
}
);
note = uni0719.fina;
},
{
glyphname = uni071A;
lastChange = "2024-07-18 07:53:51 +0000";
layers = (
{
anchors = (
{
name = bottom;
pos = (354,-20);
},
{
name = top;
pos = (354,222);
}
);
hints = (
{
horizontal = 1;
place = (0,202);
type = Stem;
},
{
place = (303,101);
type = Stem;
}
);
layerId = m01;
shapes = (
{
closed = 1;
nodes = (
(303,102,l),
(404,102,l),
(404,202,l),
(505,202,l),
(505,0,l),
(51,0,l),
(51,101,l),
(202,101,l),
(202,202,l),
(303,202,l)
);
}
);
width = 505;
}
);
note = uni071A;
unicode = 1818;
},
{
glyphname = uni071A.fina;
lastChange = "2024-07-18 07:53:51 +0000";
layers = (
{
anchors = (
{
name = bottom;
pos = (354,-20);
},
{
name = top;
pos = (354,222);
}
);
hints = (
{
horizontal = 1;
place = (0,202);
type = Stem;
},
{
place = (303,101);
type = Stem;
}
);
layerId = m01;
shapes = (
{
closed = 1;
nodes = (
(303,102,l),
(404,102,l),
(404,202,l),
(505,202,l),
(505,101,l),
(556,101,l),
(556,0,l),
(51,0,l),
(51,101,l),
(202,101,l),
(202,202,l),
(303,202,l)
);
}
);
width = 555;
}
);
note = uni071A.fina;
},
{
glyphname = uni071A.medi;
lastChange = "2024-07-18 07:53:51 +0000";
layers = (
{
anchors = (
{
name = bottom;
pos = (324,-20);
},
{
name = top;
pos = (324,222);
}
);
hints = (
{
horizontal = 1;
place = (0,202);
type = Stem;
},
{
place = (273,101);
type = Stem;
}
);
layerId = m01;
shapes = (
{
closed = 1;
nodes = (
(273,102,l),
(374,102,l),
(374,202,l),
(475,202,l),
(475,101,l),
(526,101,l),
(526,0,l),
(-50,0,l),
(-50,101,l),
(172,101,l),
(172,202,l),
(273,202,l)
);
}
);
width = 525;
}
);
note = uni071A.medi;
},
{
glyphname = uni071A.init;
lastChange = "2024-07-18 07:53:51 +0000";
layers = (
{
anchors = (
{
name = bottom;
pos = (324,-20);
},
{
name = top;
pos = (324,222);
}
);
hints = (
{
horizontal = 1;
place = (0,202);
type = Stem;
},
{
place = (273,101);
type = Stem;
}
);
layerId = m01;
shapes = (
{
closed = 1;
nodes = (
(273,102,l),
(374,102,l),
(374,202,l),
(475,202,l),
(475,0,l),
(-50,0,l),
(-50,101,l),
(172,101,l),
(172,202,l),
(273,202,l)
);
}
);
width = 475;
}
);
note = uni071A.init;
},
{
glyphname = uni071B;
lastChange = "2024-07-18 07:53:51 +0000";
layers = (
{
anchors = (
{
name = bottom;
pos = (253,-222);
},
{
name = top;
pos = (253,323);
}
);
hints = (
{
horizontal = 1;
place = (0,101);
type = Stem;
},
{
horizontal = 1;
place = (-202,101);
type = Stem;
},
{
place = (354,101);
type = Stem;
},
{
place = (152,101);
type = Stem;
}
);
layerId = m01;
shapes = (
{
closed = 1;
nodes = (
(51,0,l),
(152,0,l),
(152,-202,l),
(455,-202,l),
(455,101,l),
(253,101,l),
(253,303,l),
(152,303,l),
(152,101,l),
(51,101,l)
);
},
{
closed = 1;
nodes = (
(354,0,l),
(354,-101,l),
(253,-101,l),
(253,0,l)
);
}
);
width = 455;
}
);
note = uni071B;
unicode = 1819;
},
{
glyphname = uni071B.fina;
lastChange = "2024-07-18 07:53:51 +0000";
layers = (
{
anchors = (
{
name = bottom;
pos = (253,-222);
},
{
name = top;
pos = (253,323);
}
);
hints = (
{
horizontal = 1;
place = (0,101);
type = Stem;
},
{
horizontal = 1;
place = (-202,101);
type = Stem;
},
{
place = (354,101);
type = Stem;
},
{
place = (152,101);
type = Stem;
}
);
layerId = m01;
shapes = (
{
closed = 1;
nodes = (
(51,0,l),
(152,0,l),
(152,-202,l),
(455,-202,l),
(455,0,l),
(505,0,l),
(505,101,l),
(253,101,l),
(253,303,l),
(152,303,l),
(152,101,l),
(51,101,l)
);
},
{
closed = 1;
nodes = (
(354,0,l),
(354,-101,l),
(253,-101,l),
(253,0,l)
);
}
);
width = 505;
}
);
note = uni071B.fina;
},
{
glyphname = uni071B.medi;
lastChange = "2024-07-18 07:53:51 +0000";
layers = (
{
anchors = (
{
name = bottom;
pos = (202,-222);
},
{
name = top;
pos = (202,323);
}
);
hints = (
{
horizontal = 1;
place = (0,101);
type = Stem;
},
{
horizontal = 1;
place = (-202,101);
type = Stem;
},
{
place = (303,101);
type = Stem;
},
{
place = (101,101);
type = Stem;
}
);
layerId = m01;
shapes = (
{
closed = 1;
nodes = (
(-50,0,l),
(101,0,l),
(101,-202,l),
(404,-202,l),
(404,0,l),
(455,0,l),
(455,101,l),
(202,101,l),
(202,303,l),
(101,303,l),
(101,101,l),
(-50,101,l)
);
},
{
closed = 1;
nodes = (
(303,0,l),
(303,-101,l),
(202,-101,l),
(202,0,l)
);
}
);
width = 454;
}
);
note = uni071B.medi;
},
{
glyphname = uni071B.init;
lastChange = "2024-07-18 07:53:51 +0000";
layers = (
{
anchors = (
{
name = bottom;
pos = (202,-222);
},
{
name = top;
pos = (202,323);
}
);
hints = (
{
horizontal = 1;
place = (0,101);
type = Stem;
},
{
horizontal = 1;
place = (-202,101);
type = Stem;
},
{
place = (303,101);
type = Stem;
},
{
place = (101,101);
type = Stem;
}
);
layerId = m01;
shapes = (
{
closed = 1;
nodes = (
(-50,0,l),
(101,0,l),
(101,-202,l),
(404,-202,l),
(404,101,l),
(202,101,l),
(202,303,l),
(101,303,l),
(101,101,l),
(-50,101,l)
);
},
{
closed = 1;
nodes = (
(303,0,l),
(303,-101,l),
(202,-101,l),
(202,0,l)
);
}
);
width = 404;
}
);
note = uni071B.init;
},
{
glyphname = uni071C;
lastChange = "2024-07-18 07:53:51 +0000";
layers = (
{
anchors = (
{
name = bottom;
pos = (253,-222);
},
{
name = top;
pos = (253,323);
}
);
hints = (
{
horizontal = 1;
place = (0,101);
type = Stem;
},
{
horizontal = 1;
place = (-76,51);
type = Stem;
},
{
horizontal = 1;
place = (-202,101);
type = Stem;
},
{
place = (354,101);
type = Stem;
},
{
place = (278,51);
type = Stem;
},
{
place = (152,101);
type = Stem;
}
);
layerId = m01;
shapes = (
{
closed = 1;
nodes = (
(51,0,l),
(152,0,l),
(152,-202,l),
(455,-202,l),
(455,101,l),
(253,101,l),
(253,303,l),
(152,303,l),
(152,101,l),
(51,101,l)
);
},
{
closed = 1;
nodes = (
(354,0,l),
(354,-101,l),
(253,-101,l),
(253,0,l)
);
},
{
closed = 1;
nodes = (
(329,-76,l),
(329,-25,l),
(278,-25,l),
(278,-76,l)
);
}
);
width = 455;
}
);
note = uni071C;
unicode = 1820;
},
{
glyphname = uni071C.fina;
lastChange = "2024-07-18 07:53:51 +0000";
layers = (
{
anchors = (
{
name = bottom;
pos = (253,-222);
},
{
name = top;
pos = (253,323);
}
);
hints = (
{
horizontal = 1;
place = (0,101);
type = Stem;
},
{
horizontal = 1;
place = (-76,51);
type = Stem;
},
{
horizontal = 1;
place = (-202,101);
type = Stem;
},
{
place = (354,101);
type = Stem;
},
{
place = (278,51);
type = Stem;
},
{
place = (152,101);
type = Stem;
}
);
layerId = m01;
shapes = (
{
closed = 1;
nodes = (
(51,0,l),
(152,0,l),
(152,-202,l),
(455,-202,l),
(455,0,l),
(505,0,l),
(505,101,l),
(253,101,l),
(253,303,l),
(152,303,l),
(152,101,l),
(51,101,l)
);
},
{
closed = 1;
nodes = (
(354,0,l),
(354,-101,l),
(253,-101,l),
(253,0,l)
);
},
{
closed = 1;
nodes = (
(329,-76,l),
(329,-25,l),
(278,-25,l),
(278,-76,l)
);
}
);
width = 505;
}
);
note = uni071C.fina;
},
{
glyphname = uni071C.medi;
lastChange = "2024-07-18 07:53:51 +0000";
layers = (
{
anchors = (
{
name = bottom;
pos = (202,-222);
},
{
name = top;
pos = (202,323);
}
);
hints = (
{
horizontal = 1;
place = (0,101);
type = Stem;
},
{
horizontal = 1;
place = (-76,51);
type = Stem;
},
{
horizontal = 1;
place = (-202,101);
type = Stem;
},
{
place = (303,101);
type = Stem;
},
{
place = (227,51);
type = Stem;
},
{
place = (101,101);
type = Stem;
}
);
layerId = m01;
shapes = (
{
closed = 1;
nodes = (
(-50,0,l),
(101,0,l),
(101,-202,l),
(404,-202,l),
(404,0,l),
(455,0,l),
(455,101,l),
(202,101,l),
(202,303,l),
(101,303,l),
(101,101,l),
(-50,101,l)
);
},
{
closed = 1;
nodes = (
(303,0,l),
(303,-101,l),
(202,-101,l),
(202,0,l)
);
},
{
closed = 1;
nodes = (
(278,-76,l),
(278,-25,l),
(227,-25,l),
(227,-76,l)
);
}
);
width = 454;
}
);
note = uni071C.medi;
},
{
glyphname = uni071C.init;
lastChange = "2024-07-18 07:53:51 +0000";
layers = (
{
anchors = (
{
name = bottom;
pos = (202,-222);
},
{
name = top;
pos = (202,323);
}
);
hints = (
{
horizontal = 1;
place = (0,101);
type = Stem;
},
{
horizontal = 1;
place = (-76,51);
type = Stem;
},
{
horizontal = 1;
place = (-202,101);
type = Stem;
},
{
place = (303,101);
type = Stem;
},
{
place = (227,51);
type = Stem;
},
{
place = (101,101);
type = Stem;
}
);
layerId = m01;
shapes = (
{
closed = 1;
nodes = (
(-50,0,l),
(101,0,l),
(101,-202,l),
(404,-202,l),
(404,101,l),
(202,101,l),
(202,303,l),
(101,303,l),
(101,101,l),
(-50,101,l)
);
},
{
closed = 1;
nodes = (
(303,0,l),
(303,-101,l),
(202,-101,l),
(202,0,l)
);
},
{
closed = 1;
nodes = (
(278,-76,l),
(278,-25,l),
(227,-25,l),
(227,-76,l)
);
}
);
width = 404;
}
);
note = uni071C.init;
},
{
glyphname = uni071D;
lastChange = "2024-07-18 07:53:51 +0000";
layers = (
{
anchors = (
{
name = bottom;
pos = (203,-20);
},
{
name = top;
pos = (203,222);
}
);
hints = (
{
horizontal = 1;
place = (0,202);
type = Stem;
},
{
place = (51,202);
type = Stem;
}
);
layerId = m01;
shapes = (
{
closed = 1;
nodes = (
(152,202,l),
(253,202,l),
(253,0,l),
(51,0,l),
(51,101,l),
(152,101,l)
);
}
);
width = 253;
}
);
note = uni071D;
unicode = 1821;
},
{
glyphname = uni071D.fina;
lastChange = "2024-07-18 07:53:51 +0000";
layers = (
{
anchors = (
{
name = bottom;
pos = (203,-20);
},
{
name = top;
pos = (203,221);
}
);
hints = (
{
horizontal = 1;
place = (0,201);
type = Stem;
},
{
place = (51,303);
type = Stem;
}
);
layerId = m01;
shapes = (
{
closed = 1;
nodes = (
(253,101,l),
(354,101,l),
(354,0,l),
(51,0,l),
(51,101,l),
(152,101,l),
(152,201,l),
(253,201,l)
);
}
);
width = 354;
}
);
note = uni071D.fina;
},
{
glyphname = uni071D.medi;
lastChange = "2024-07-18 07:53:51 +0000";
layers = (
{
anchors = (
{
name = bottom;
pos = (152,-20);
},
{
name = top;
pos = (152,222);
}
);
hints = (
{
horizontal = 1;
place = (0,202);
type = Stem;
},
{
place = (-50,353);
type = Stem;
}
);
layerId = m01;
shapes = (
{
closed = 1;
nodes = (
(202,101,l),
(303,101,l),
(303,0,l),
(-50,0,l),
(-50,101,l),
(101,101,l),
(101,202,l),
(202,202,l)
);
}
);
width = 302;
}
);
note = uni071D.medi;
},
{
glyphname = uni071D.init;
lastChange = "2024-07-18 07:53:51 +0000";
layers = (
{
anchors = (
{
name = bottom;
pos = (152,-20);
},
{
name = top;
pos = (152,222);
}
);
hints = (
{
horizontal = 1;
place = (0,202);
type = Stem;
},
{
place = (-50,252);
type = Stem;
}
);
layerId = m01;
shapes = (
{
closed = 1;
nodes = (
(101,202,l),
(202,202,l),
(202,0,l),
(-50,0,l),
(-50,101,l),
(101,101,l)
);
}
);
width = 202;
}
);
note = uni071D.init;
},
{
glyphname = uni071E;
lastChange = "2024-07-18 07:53:51 +0000";
layers = (
{
anchors = (
{
name = bottom;
pos = (430,-20);
},
{
name = top;
pos = (430,500);
}
);
hints = (
{
horizontal = 1;
place = (430,50);
type = Stem;
},
{
horizontal = 1;
place = (354,50);
type = Stem;
},
{
horizontal = 1;
place = (202,101);
type = Stem;
},
{
horizontal = 1;
place = (0,202);
type = Stem;
},
{
horizontal = 1;
place = (0,101);
type = Stem;
},
{
horizontal = 1;
place = (-101,51);
type = Stem;
},
{
place = (758,101);
type = Stem;
},
{
place = (456,101);
type = Stem;
},
{
place = (329,50);
type = Stem;
},
{
place = (254,101);
type = Stem;
},
{
place = (228,50);
type = Stem;
},
{
place = (52,102);
type = Stem;
}
);
layerId = m01;
shapes = (
{
closed = 1;
nodes = (
(556,303,l),
(51,303,l),
(52,0,l),
(203,0,l),
(203,101,l),
(153,101,l),
(153,202,l),
(254,202,l),
(254,0,l),
(355,0,l),
(355,202,l),
(455,202,l),
(456,0,l),
(859,0,l),
(859,202,l),
(758,202,l),
(758,101,l),
(556,101,l)
);
},
{
closed = 1;
nodes = (
(278,354,l),
(278,404,l),
(228,404,l),
(228,354,l)
);
},
{
closed = 1;
nodes = (
(379,354,l),
(379,404,l),
(329,404,l),
(329,354,l)
);
},
{
closed = 1;
nodes = (
(329,430,l),
(329,480,l),
(278,480,l),
(278,430,l)
);
},
{
closed = 1;
nodes = (
(329,-101,l),
(329,-50,l),
(278,-50,l),
(278,-101,l)
);
}
);
width = 859;
}
);
note = uni071E;
unicode = 1822;
},
{
glyphname = uni071F;
lastChange = "2024-07-18 07:53:51 +0000";
layers = (
{
anchors = (
{
name = bottom;
pos = (228,31);
},
{
name = top;
pos = (228,273);
}
);
hints = (
{
horizontal = 1;
place = (152,101);
type = Stem;
},
{
horizontal = 1;
place = (51,101);
type = Stem;
},
{
place = (354,101);
type = Stem;
},
{
place = (202,101);
type = Stem;
},
{
place = (51,101);
type = Stem;
}
);
layerId = m01;
shapes = (
{
closed = 1;
nodes = (
(303,152,l),
(354,152,l),
(354,-202,l),
(455,-202,l),
(455,253,l),
(202,253,l),
(202,152,l),
(152,152,l),
(152,303,l),
(51,303,l),
(51,51,l),
(303,51,l)
);
}
);
width = 455;
}
);
note = uni071F;
unicode = 1823;
},
{
glyphname = uni071F.fina;
lastChange = "2024-07-18 07:53:51 +0000";
layers = (
{
anchors = (
{
name = bottom;
pos = (253,31);
},
{
name = top;
pos = (253,273);
}
);
hints = (
{
horizontal = 1;
place = (152,101);
type = Stem;
},
{
horizontal = 1;
place = (51,101);
type = Stem;
},
{
horizontal = 1;
place = (0,101);
type = Stem;
},
{
place = (354,101);
type = Stem;
},
{
place = (202,101);
type = Stem;
},
{
place = (51,101);
type = Stem;
}
);
layerId = m01;
shapes = (
{
closed = 1;
nodes = (
(303,152,l),
(354,152,l),
(354,-202,l),
(455,-202,l),
(455,0,l),
(506,0,l),
(506,101,l),
(455,101,l),
(455,253,l),
(202,253,l),
(202,152,l),
(152,152,l),
(152,303,l),
(51,303,l),
(51,51,l),
(303,51,l)
);
}
);
width = 505;
}
);
note = uni071F.fina;
},
{
glyphname = uni071F.medi;
lastChange = "2024-07-18 07:53:51 +0000";
layers = (
{
anchors = (
{
name = bottom;
pos = (303,-20);
},
{
name = top;
pos = (303,323);
}
);
hints = (
{
horizontal = 1;
place = (202,101);
type = Stem;
},
{
horizontal = 1;
place = (0,101);
type = Stem;
},
{
place = (404,101);
type = Stem;
},
{
place = (101,101);
type = Stem;
}
);
layerId = m01;
shapes = (
{
closed = 1;
nodes = (
(404,101,l),
(-50,101,l),
(-50,0,l),
(556,0,l),
(556,101,l),
(505,101,l),
(505,303,l),
(101,303,l),
(101,152,l),
(202,152,l),
(202,202,l),
(404,202,l)
);
}
);
width = 556;
}
);
note = uni071F.medi;
},
{
glyphname = uni071F.init;
lastChange = "2024-07-18 07:53:51 +0000";
layers = (
{
anchors = (
{
name = bottom;
pos = (303,-20);
},
{
name = top;
pos = (303,323);
}
);
hints = (
{
horizontal = 1;
place = (202,101);
type = Stem;
},
{
horizontal = 1;
place = (0,101);
type = Stem;
},
{
place = (404,101);
type = Stem;
},
{
place = (101,101);
type = Stem;
}
);
layerId = m01;
shapes = (
{
closed = 1;
nodes = (
(404,101,l),
(-50,101,l),
(-50,0,l),
(505,0,l),
(505,303,l),
(101,303,l),
(101,152,l),
(202,152,l),
(202,202,l),
(404,202,l)
);
}
);
width = 505;
}
);
note = uni071F.init;
},
{
glyphname = uni0720;
lastChange = "2024-07-18 07:53:51 +0000";
layers = (
{
anchors = (
{
name = bottom;
pos = (303,-20);
},
{
name = top;
pos = (303,525);
}
);
hints = (
{
horizontal = 1;
place = (0,505);
type = Stem;
},
{
place = (51,303);
type = Stem;
}
);
layerId = m01;
shapes = (
{
closed = 1;
nodes = (
(253,505,l),
(354,505,l),
(354,0,l),
(51,0,l),
(51,101,l),
(253,101,l)
);
}
);
width = 354;
}
);
note = uni0720;
unicode = 1824;
},
{
glyphname = uni0720.fina;
lastChange = "2024-07-18 07:53:51 +0000";
layers = (
{
anchors = (
{
name = bottom;
pos = (304,-20);
},
{
name = top;
pos = (304,525);
}
);
hints = (
{
horizontal = 1;
place = (0,505);
type = Stem;
},
{
place = (51,404);
type = Stem;
}
);
layerId = m01;
shapes = (
{
closed = 1;
nodes = (
(354,101,l),
(455,101,l),
(455,0,l),
(51,0,l),
(51,101,l),
(253,101,l),
(253,505,l),
(354,505,l)
);
}
);
width = 455;
}
);
note = uni0720.fina;
},
{
glyphname = uni0720.medi;
lastChange = "2024-07-18 07:53:51 +0000";
layers = (
{
anchors = (
{
name = bottom;
pos = (152,-20);
},
{
name = top;
pos = (152,525);
}
);
hints = (
{
horizontal = 1;
place = (0,505);
type = Stem;
},
{
place = (-50,353);
type = Stem;
}
);
layerId = m01;
shapes = (
{
closed = 1;
nodes = (
(202,101,l),
(303,101,l),
(303,0,l),
(-50,0,l),
(-50,101,l),
(101,101,l),
(101,505,l),
(202,505,l)
);
}
);
width = 303;
}
);
note = uni0720.medi;
},
{
glyphname = uni0720.init;
lastChange = "2024-07-18 07:53:51 +0000";
layers = (
{
anchors = (
{
name = bottom;
pos = (152,-20);
},
{
name = top;
pos = (152,525);
}
);
hints = (
{
horizontal = 1;
place = (0,505);
type = Stem;
},
{
place = (-50,252);
type = Stem;
}
);
layerId = m01;
shapes = (
{
closed = 1;
nodes = (
(101,505,l),
(202,505,l),
(202,0,l),
(-50,0,l),
(-50,101,l),
(101,101,l)
);
}
);
width = 202;
}
);
note = uni0720.init;
},
{
glyphname = uni0721;
lastChange = "2024-07-18 07:53:51 +0000";
layers = (
{
anchors = (
{
name = bottom;
pos = (354,-20);
},
{
name = top;
pos = (354,323);
}
);
hints = (
{
horizontal = 1;
place = (202,101);
type = Stem;
},
{
horizontal = 1;
place = (0,101);
type = Stem;
},
{
place = (354,101);
type = Stem;
},
{
place = (152,101);
type = Stem;
}
);
layerId = m01;
shapes = (
{
closed = 1;
nodes = (
(51,202,l),
(152,202,l),
(152,-101,l),
(253,-101,l),
(253,0,l),
(455,0,l),
(455,303,l),
(51,303,l)
);
},
{
closed = 1;
nodes = (
(354,202,l),
(354,101,l),
(253,101,l),
(253,202,l)
);
}
);
width = 455;
}
);
note = uni0721;
unicode = 1825;
},
{
glyphname = uni0721.fina;
lastChange = "2024-07-18 07:53:51 +0000";
layers = (
{
anchors = (
{
name = bottom;
pos = (380,-20);
},
{
name = top;
pos = (380,324);
}
);
hints = (
{
horizontal = 1;
place = (202,101);
type = Stem;
},
{
horizontal = 1;
place = (0,101);
type = Stem;
},
{
place = (354,101);
type = Stem;
},
{
place = (152,101);
type = Stem;
}
);
layerId = m01;
shapes = (
{
closed = 1;
nodes = (
(51,202,l),
(152,202,l),
(152,-101,l),
(253,-101,l),
(253,0,l),
(506,0,l),
(506,101,l),
(455,101,l),
(455,303,l),
(51,303,l)
);
},
{
closed = 1;
nodes = (
(354,202,l),
(354,101,l),
(253,101,l),
(253,202,l)
);
}
);
width = 505;
}
);
note = uni0721.fina;
},
{
glyphname = uni0721.medi;
lastChange = "2024-07-18 07:53:51 +0000";
layers = (
{
anchors = (
{
name = bottom;
pos = (278,-20);
},
{
name = top;
pos = (278,323);
}
);
hints = (
{
horizontal = 1;
place = (202,101);
type = Stem;
},
{
horizontal = 1;
place = (0,101);
type = Stem;
},
{
place = (354,101);
type = Stem;
},
{
place = (152,101);
type = Stem;
}
);
layerId = m01;
shapes = (
{
closed = 1;
nodes = (
(303,101,l),
(303,0,l),
(506,0,l),
(506,101,l),
(455,101,l),
(455,303,l),
(51,303,l),
(51,202,l),
(152,202,l),
(152,101,l),
(-50,101,l),
(-50,0,l),
(253,0,l),
(253,202,l),
(354,202,l),
(354,101,l)
);
}
);
width = 505;
}
);
note = uni0721.medi;
},
{
glyphname = uni0721.init;
lastChange = "2024-07-18 07:53:51 +0000";
layers = (
{
anchors = (
{
name = bottom;
pos = (278,-20);
},
{
name = top;
pos = (278,323);
}
);
hints = (
{
horizontal = 1;
place = (202,101);
type = Stem;
},
{
horizontal = 1;
place = (0,101);
type = Stem;
},
{
place = (354,101);
type = Stem;
},
{
place = (152,101);
type = Stem;
}
);
layerId = m01;
shapes = (
{
closed = 1;
nodes = (
(303,101,l),
(303,0,l),
(455,0,l),
(455,303,l),
(51,303,l),
(51,202,l),
(152,202,l),
(152,101,l),
(-50,101,l),
(-50,0,l),
(253,0,l),
(253,202,l),
(354,202,l),
(354,101,l)
);
}
);
width = 455;
}
);
note = uni0721.init;
},
{
glyphname = uni0722;
lastChange = "2024-07-18 07:53:51 +0000";
layers = (
{
anchors = (
{
name = bottom;
pos = (102,-222);
},
{
name = top;
pos = (102,121);
}
);
hints = (
{
horizontal = 1;
place = (-202,303);
type = Stem;
},
{
place = (51,101);
type = Stem;
}
);
layerId = m01;
shapes = (
{
closed = 1;
nodes = (
(152,-202,l),
(152,101,l),
(51,101,l),
(51,-202,l)
);
}
);
width = 152;
}
);
note = uni0722;
unicode = 1826;
},
{
glyphname = uni0722.fina;
lastChange = "2024-07-18 07:53:51 +0000";
layers = (
{
anchors = (
{
name = bottom;
pos = (102,-222);
},
{
name = top;
pos = (102,121);
}
);
hints = (
{
horizontal = 1;
place = (0,101);
type = Stem;
},
{
place = (51,101);
type = Stem;
}
);
layerId = m01;
shapes = (
{
closed = 1;
nodes = (
(178,0,l),
(178,101,l),
(51,101,l),
(51,-202,l),
(152,-202,l),
(152,0,l)
);
}
);
width = 177;
}
);
note = uni0722.fina;
},
{
glyphname = uni0722.medi;
lastChange = "2024-07-18 07:53:51 +0000";
layers = (
{
anchors = (
{
name = bottom;
pos = (76,-20);
},
{
name = top;
pos = (76,323);
}
);
hints = (
{
horizontal = 1;
place = (0,101);
type = Stem;
},
{
place = (25,101);
type = Stem;
}
);
layerId = m01;
shapes = (
{
closed = 1;
nodes = (
(25,101,l),
(-50,101,l),
(-50,0,l),
(177,0,l),
(177,101,l),
(126,101,l),
(126,303,l),
(25,303,l)
);
}
);
width = 177;
}
);
note = uni0722.medi;
},
{
glyphname = uni0722.init;
lastChange = "2024-07-18 07:53:51 +0000";
layers = (
{
anchors = (
{
name = bottom;
pos = (77,-20);
},
{
name = top;
pos = (77,323);
}
);
hints = (
{
horizontal = 1;
place = (0,99);
type = Stem;
},
{
place = (26,101);
type = Stem;
}
);
layerId = m01;
shapes = (
{
closed = 1;
nodes = (
(26,99,l),
(-50,99,l),
(-50,0,l),
(127,0,l),
(127,303,l),
(26,303,l)
);
}
);
width = 127;
}
);
note = uni0722.init;
},
{
glyphname = uni0723;
lastChange = "2024-07-18 07:53:51 +0000";
layers = (
{
anchors = (
{
name = bottom;
pos = (304,-20);
},
{
name = top;
pos = (304,323);
}
);
hints = (
{
horizontal = 1;
place = (101,101);
type = Stem;
},
{
place = (354,101);
type = Stem;
},
{
place = (152,101);
type = Stem;
}
);
layerId = m01;
shapes = (
{
closed = 1;
nodes = (
(152,202,l),
(152,101,l),
(253,101,l),
(253,202,l)
);
},
{
closed = 1;
nodes = (
(51,303,l),
(556,303,l),
(556,0,l),
(51,0,l)
);
},
{
closed = 1;
nodes = (
(354,202,l),
(354,101,l),
(455,101,l),
(454,202,l)
);
}
);
width = 556;
}
);
note = uni0723;
unicode = 1827;
},
{
glyphname = uni0723.fina;
lastChange = "2024-07-18 07:53:51 +0000";
layers = (
{
anchors = (
{
name = bottom;
pos = (304,-20);
},
{
name = top;
pos = (304,323);
}
);
hints = (
{
horizontal = 1;
place = (101,101);
type = Stem;
},
{
place = (354,101);
type = Stem;
},
{
place = (152,101);
type = Stem;
}
);
layerId = m01;
shapes = (
{
closed = 1;
nodes = (
(152,202,l),
(152,101,l),
(253,101,l),
(253,202,l)
);
},
{
closed = 1;
nodes = (
(556,101,l),
(606,101,l),
(606,0,l),
(51,0,l),
(51,303,l),
(556,303,l)
);
},
{
closed = 1;
nodes = (
(354,202,l),
(354,101,l),
(455,101,l),
(454,202,l)
);
}
);
width = 606;
}
);
note = uni0723.fina;
},
{
glyphname = uni0723.medi;
lastChange = "2024-07-18 07:53:55 +0000";
layers = (
{
anchors = (
{
name = bottom;
pos = (304,-20);
},
{
name = top;
pos = (304,323);
}
);
hints = (
{
horizontal = 1;
place = (101,101);
type = Stem;
},
{
place = (354,101);
type = Stem;
},
{
place = (152,101);
type = Stem;
}
);
layerId = m01;
shapes = (
{
closed = 1;
nodes = (
(152,202,l),
(152,101,l),
(253,101,l),
(253,202,l)
);
},
{
closed = 1;
nodes = (
(556,101,l),
(606,101,l),
(606,0,l),
(-50,0,l),
(-50,101,l),
(51,101,l),
(51,303,l),
(556,303,l)
);
},
{
closed = 1;
nodes = (
(354,202,l),
(354,101,l),
(455,101,l),
(454,202,l)
);
}
);
width = 606;
}
);
note = uni0723.medi;
},
{
glyphname = uni0723.init;
lastChange = "2024-07-18 07:53:55 +0000";
layers = (
{
anchors = (
{
name = bottom;
pos = (304,-20);
},
{
name = top;
pos = (304,323);
}
);
hints = (
{
horizontal = 1;
place = (101,101);
type = Stem;
},
{
place = (354,101);
type = Stem;
},
{
place = (152,101);
type = Stem;
}
);
layerId = m01;
shapes = (
{
closed = 1;
nodes = (
(152,202,l),
(152,101,l),
(253,101,l),
(253,202,l)
);
},
{
closed = 1;
nodes = (
(51,303,l),
(556,303,l),
(556,0,l),
(-50,0,l),
(-50,101,l),
(51,101,l)
);
},
{
closed = 1;
nodes = (
(354,202,l),
(354,101,l),
(455,101,l),
(454,202,l)
);
}
);
width = 556;
}
);
note = uni0723.init;
},
{
glyphname = uni0724;
lastChange = "2024-07-18 07:53:55 +0000";
layers = (
{
anchors = (
{
name = bottom;
pos = (304,-20);
},
{
name = top;
pos = (304,323);
}
);
hints = (
{
horizontal = 1;
place = (101,101);
type = Stem;
},
{
place = (354,101);
type = Stem;
},
{
place = (152,101);
type = Stem;
}
);
layerId = m01;
shapes = (
{
closed = 1;
nodes = (
(152,202,l),
(152,101,l),
(253,101,l),
(253,202,l)
);
},
{
closed = 1;
nodes = (
(51,303,l),
(556,303,l),
(556,0,l),
(354,0,l),
(354,-101,l),
(253,-101,l),
(253,0,l),
(51,0,l)
);
},
{
closed = 1;
nodes = (
(354,202,l),
(354,101,l),
(455,101,l),
(454,202,l)
);
}
);
width = 556;
}
);
note = uni0724;
unicode = 1828;
},
{
glyphname = uni0724.fina;
lastChange = "2024-07-18 07:53:55 +0000";
layers = (
{
anchors = (
{
name = bottom;
pos = (304,-20);
},
{
name = top;
pos = (304,323);
}
);
hints = (
{
horizontal = 1;
place = (101,101);
type = Stem;
},
{
place = (354,101);
type = Stem;
},
{
place = (152,101);
type = Stem;
}
);
layerId = m01;
shapes = (
{
closed = 1;
nodes = (
(152,202,l),
(152,101,l),
(253,101,l),
(253,202,l)
);
},
{
closed = 1;
nodes = (
(556,101,l),
(606,101,l),
(606,0,l),
(354,0,l),
(354,-101,l),
(253,-101,l),
(253,0,l),
(51,0,l),
(51,303,l),
(556,303,l)
);
},
{
closed = 1;
nodes = (
(354,202,l),
(354,101,l),
(455,101,l),
(454,202,l)
);
}
);
width = 606;
}
);
note = uni0724.fina;
},
{
glyphname = uni0724.medi;
lastChange = "2024-07-18 07:53:55 +0000";
layers = (
{
anchors = (
{
name = bottom;
pos = (304,-20);
},
{
name = top;
pos = (304,323);
}
);
hints = (
{
horizontal = 1;
place = (101,101);
type = Stem;
},
{
place = (354,101);
type = Stem;
},
{
place = (152,101);
type = Stem;
}
);
layerId = m01;
shapes = (
{
closed = 1;
nodes = (
(152,202,l),
(152,101,l),
(253,101,l),
(253,202,l)
);
},
{
closed = 1;
nodes = (
(556,101,l),
(606,101,l),
(606,0,l),
(354,0,l),
(354,-101,l),
(253,-101,l),
(253,0,l),
(-50,0,l),
(-50,101,l),
(51,101,l),
(51,303,l),
(556,303,l)
);
},
{
closed = 1;
nodes = (
(354,202,l),
(354,101,l),
(455,101,l),
(454,202,l)
);
}
);
width = 606;
}
);
note = uni0724.medi;
},
{
glyphname = uni0724.init;
lastChange = "2024-07-18 07:53:55 +0000";
layers = (
{
anchors = (
{
name = bottom;
pos = (304,-20);
},
{
name = top;
pos = (304,323);
}
);
hints = (
{
horizontal = 1;
place = (101,101);
type = Stem;
},
{
place = (354,101);
type = Stem;
},
{
place = (152,101);
type = Stem;
}
);
layerId = m01;
shapes = (
{
closed = 1;
nodes = (
(152,202,l),
(152,101,l),
(253,101,l),
(253,202,l)
);
},
{
closed = 1;
nodes = (
(51,303,l),
(556,303,l),
(556,0,l),
(354,0,l),
(354,-101,l),
(253,-101,l),
(253,0,l),
(-50,0,l),
(-50,101,l),
(51,101,l)
);
},
{
closed = 1;
nodes = (
(354,202,l),
(354,101,l),
(455,101,l),
(454,202,l)
);
}
);
width = 556;
}
);
note = uni0724.init;
},
{
glyphname = uni0725;
lastChange = "2024-07-18 07:53:55 +0000";
layers = (
{
anchors = (
{
name = bottom;
pos = (253,-20);
},
{
name = top;
pos = (253,273);
}
);
hints = (
{
horizontal = 1;
place = (152,101);
type = Stem;
},
{
horizontal = 1;
place = (0,101);
type = Stem;
},
{
place = (253,101);
type = Stem;
},
{
place = (101,101);
type = Stem;
}
);
layerId = m01;
shapes = (
{
closed = 1;
nodes = (
(253,101,l),
(51,101,l),
(51,0,l),
(404,0,l),
(404,101,l),
(354,101,l),
(354,253,l),
(202,253,l),
(202,303,l),
(101,303,l),
(101,152,l),
(253,152,l)
);
}
);
width = 404;
}
);
note = uni0725;
unicode = 1829;
},
{
glyphname = uni0725.fina;
lastChange = "2024-07-18 07:53:55 +0000";
layers = (
{
anchors = (
{
name = bottom;
pos = (253,-20);
},
{
name = top;
pos = (253,273);
}
);
hints = (
{
horizontal = 1;
place = (152,101);
type = Stem;
},
{
horizontal = 1;
place = (0,101);
type = Stem;
},
{
place = (253,101);
type = Stem;
},
{
place = (101,101);
type = Stem;
}
);
layerId = m01;
shapes = (
{
closed = 1;
nodes = (
(253,101,l),
(51,101,l),
(51,0,l),
(455,0,l),
(455,101,l),
(354,101,l),
(354,253,l),
(202,253,l),
(202,303,l),
(101,303,l),
(101,152,l),
(253,152,l)
);
}
);
width = 454;
}
);
note = uni0725.fina;
},
{
glyphname = uni0725.medi;
lastChange = "2024-07-18 07:53:55 +0000";
layers = (
{
anchors = (
{
name = bottom;
pos = (202,-20);
},
{
name = top;
pos = (202,273);
}
);
hints = (
{
horizontal = 1;
place = (152,101);
type = Stem;
},
{
horizontal = 1;
place = (0,101);
type = Stem;
},
{
place = (202,101);
type = Stem;
},
{
place = (51,101);
type = Stem;
}
);
layerId = m01;
shapes = (
{
closed = 1;
nodes = (
(202,101,l),
(-50,101,l),
(-50,0,l),
(404,0,l),
(404,101,l),
(303,101,l),
(303,253,l),
(152,253,l),
(152,303,l),
(51,303,l),
(51,152,l),
(202,152,l)
);
}
);
width = 404;
}
);
note = uni0725.medi;
},
{
glyphname = uni0725.init;
lastChange = "2024-07-18 07:53:55 +0000";
layers = (
{
anchors = (
{
name = bottom;
pos = (202,-20);
},
{
name = top;
pos = (202,273);
}
);
hints = (
{
horizontal = 1;
place = (152,101);
type = Stem;
},
{
horizontal = 1;
place = (0,101);
type = Stem;
},
{
place = (202,101);
type = Stem;
},
{
place = (51,101);
type = Stem;
}
);
layerId = m01;
shapes = (
{
closed = 1;
nodes = (
(202,101,l),
(-50,101,l),
(-50,0,l),
(354,0,l),
(354,101,l),
(303,101,l),
(303,253,l),
(152,253,l),
(152,303,l),
(51,303,l),
(51,152,l),
(202,152,l)
);
}
);
width = 354;
}
);
note = uni0725.init;
},
{
glyphname = uni0726;
lastChange = "2024-07-18 07:53:55 +0000";
layers = (
{
anchors = (
{
name = bottom;
pos = (314,-20);
},
{
name = top;
pos = (324,323);
}
);
hints = (
{
horizontal = 1;
place = (223,80);
type = Stem;
},
{
horizontal = 1;
place = (142,40);
type = Stem;
},
{
horizontal = 1;
place = (0,101);
type = Stem;
},
{
place = (415,101);
type = Stem;
},
{
place = (132,81);
type = Stem;
}
);
layerId = m01;
shapes = (
{
closed = 1;
nodes = (
(213,223,l),
(415,223,l),
(415,182,l),
(213,182,l)
);
},
{
closed = 1;
nodes = (
(132,303,l),
(132,142,l),
(415,142,l),
(415,101,l),
(51,101,l),
(51,0,l),
(516,0,l),
(516,303,l)
);
}
);
width = 516;
}
);
note = uni0726;
unicode = 1830;
},
{
glyphname = uni0726.fina;
lastChange = "2024-07-18 07:53:55 +0000";
layers = (
{
anchors = (
{
name = bottom;
pos = (324,-20);
},
{
name = top;
pos = (324,323);
}
);
hints = (
{
horizontal = 1;
place = (223,80);
type = Stem;
},
{
horizontal = 1;
place = (142,40);
type = Stem;
},
{
horizontal = 1;
place = (0,101);
type = Stem;
},
{
place = (415,101);
type = Stem;
},
{
place = (132,81);
type = Stem;
}
);
layerId = m01;
shapes = (
{
closed = 1;
nodes = (
(213,223,l),
(415,223,l),
(415,182,l),
(213,182,l)
);
},
{
closed = 1;
nodes = (
(132,303,l),
(132,142,l),
(415,142,l),
(415,101,l),
(51,101,l),
(51,0,l),
(566,0,l),
(566,101,l),
(516,101,l),
(516,303,l)
);
}
);
width = 566;
}
);
note = uni0726.fina;
},
{
glyphname = uni0726.medi;
lastChange = "2024-07-18 07:53:55 +0000";
layers = (
{
anchors = (
{
name = bottom;
pos = (273,-20);
},
{
name = top;
pos = (273,323);
}
);
hints = (
{
horizontal = 1;
place = (223,80);
type = Stem;
},
{
horizontal = 1;
place = (142,40);
type = Stem;
},
{
horizontal = 1;
place = (0,101);
type = Stem;
},
{
place = (364,101);
type = Stem;
},
{
place = (81,81);
type = Stem;
}
);
layerId = m01;
shapes = (
{
closed = 1;
nodes = (
(162,223,l),
(365,223,l),
(364,182,l),
(162,182,l)
);
},
{
closed = 1;
nodes = (
(81,303,l),
(81,142,l),
(364,142,l),
(364,101,l),
(-50,101,l),
(-50,0,l),
(516,0,l),
(516,101,l),
(465,101,l),
(465,303,l)
);
}
);
width = 515;
}
);
note = uni0726.medi;
},
{
glyphname = uni0726.init;
lastChange = "2024-07-18 07:53:55 +0000";
layers = (
{
anchors = (
{
name = bottom;
pos = (273,-20);
},
{
name = top;
pos = (273,323);
}
);
hints = (
{
horizontal = 1;
place = (223,80);
type = Stem;
},
{
horizontal = 1;
place = (142,40);
type = Stem;
},
{
horizontal = 1;
place = (0,101);
type = Stem;
},
{
place = (364,101);
type = Stem;
},
{
place = (81,81);
type = Stem;
}
);
layerId = m01;
shapes = (
{
closed = 1;
nodes = (
(162,223,l),
(365,223,l),
(364,182,l),
(162,182,l)
);
},
{
closed = 1;
nodes = (
(81,303,l),
(81,142,l),
(364,142,l),
(364,101,l),
(-50,101,l),
(-50,0,l),
(465,0,l),
(465,303,l)
);
}
);
width = 465;
}
);
note = uni0726.init;
},
{
glyphname = uni0727;
lastChange = "2024-07-18 07:53:55 +0000";
layers = (
{
anchors = (
{
name = bottom;
pos = (243,-20);
},
{
name = top;
pos = (243,323);
}
);
hints = (
{
horizontal = 1;
place = (223,80);
type = Stem;
},
{
horizontal = 1;
place = (142,40);
type = Stem;
},
{
horizontal = 1;
place = (0,101);
type = Stem;
},
{
place = (354,81);
type = Stem;
},
{
place = (51,101);
type = Stem;
}
);
layerId = m01;
shapes = (
{
closed = 1;
nodes = (
(354,223,l),
(354,182,l),
(152,182,l),
(151,223,l)
);
},
{
closed = 1;
nodes = (
(516,101,l),
(152,101,l),
(152,142,l),
(435,142,l),
(435,303,l),
(51,303,l),
(51,0,l),
(516,0,l)
);
}
);
width = 516;
}
);
note = uni0727;
unicode = 1831;
},
{
glyphname = uni0727.fina;
lastChange = "2024-07-18 07:53:55 +0000";
layers = (
{
anchors = (
{
name = bottom;
pos = (243,-20);
},
{
name = top;
pos = (243,323);
}
);
hints = (
{
horizontal = 1;
place = (223,80);
type = Stem;
},
{
horizontal = 1;
place = (142,40);
type = Stem;
},
{
horizontal = 1;
place = (0,101);
type = Stem;
},
{
place = (354,81);
type = Stem;
},
{
place = (51,101);
type = Stem;
}
);
layerId = m01;
shapes = (
{
closed = 1;
nodes = (
(354,223,l),
(354,182,l),
(152,182,l),
(151,223,l)
);
},
{
closed = 1;
nodes = (
(566,101,l),
(152,101,l),
(152,142,l),
(435,142,l),
(435,303,l),
(51,303,l),
(51,0,l),
(566,0,l)
);
}
);
width = 566;
}
);
note = uni0727.fina;
},
{
glyphname = uni0727.medi;
lastChange = "2024-07-18 07:53:55 +0000";
layers = (
{
anchors = (
{
name = bottom;
pos = (192,-20);
},
{
name = top;
pos = (192,323);
}
);
hints = (
{
horizontal = 1;
place = (223,80);
type = Stem;
},
{
horizontal = 1;
place = (142,40);
type = Stem;
},
{
horizontal = 1;
place = (0,101);
type = Stem;
},
{
place = (303,81);
type = Stem;
},
{
place = (0,101);
type = Stem;
}
);
layerId = m01;
shapes = (
{
closed = 1;
nodes = (
(303,223,l),
(303,182,l),
(101,182,l),
(101,223,l)
);
},
{
closed = 1;
nodes = (
(516,101,l),
(101,101,l),
(101,142,l),
(384,142,l),
(384,303,l),
(0,303,l),
(0,101,l),
(-50,101,l),
(-50,0,l),
(516,0,l)
);
}
);
width = 515;
}
);
note = uni0727.medi;
},
{
glyphname = uni0727.init;
lastChange = "2024-07-18 07:53:55 +0000";
layers = (
{
anchors = (
{
name = bottom;
pos = (192,-20);
},
{
name = top;
pos = (192,323);
}
);
hints = (
{
horizontal = 1;
place = (223,80);
type = Stem;
},
{
horizontal = 1;
place = (142,40);
type = Stem;
},
{
horizontal = 1;
place = (0,101);
type = Stem;
},
{
place = (303,81);
type = Stem;
},
{
place = (0,101);
type = Stem;
}
);
layerId = m01;
shapes = (
{
closed = 1;
nodes = (
(303,223,l),
(303,182,l),
(101,182,l),
(101,223,l)
);
},
{
closed = 1;
nodes = (
(465,101,l),
(101,101,l),
(101,142,l),
(384,142,l),
(384,303,l),
(0,303,l),
(0,101,l),
(-50,101,l),
(-50,0,l),
(465,0,l)
);
}
);
width = 465;
}
);
note = uni0727.init;
},
{
glyphname = uni0728;
lastChange = "2024-07-18 07:53:55 +0000";
layers = (
{
anchors = (
{
name = bottom;
pos = (253,-324);
},
{
name = top;
pos = (253,121);
}
);
hints = (
{
horizontal = 1;
place = (0,101);
type = Stem;
},
{
horizontal = 1;
place = (-303,101);
type = Stem;
},
{
place = (152,202);
type = Stem;
},
{
place = (51,202);
type = Stem;
}
);
layerId = m01;
shapes = (
{
closed = 1;
nodes = (
(152,-202,l),
(51,-202,l),
(51,-303,l),
(253,-304,l),
(253,0,l),
(354,0,l),
(354,101,l),
(152,101,l)
);
}
);
width = 354;
}
);
note = uni0728;
unicode = 1832;
},
{
glyphname = uni0728.fina;
lastChange = "2024-07-18 07:53:55 +0000";
layers = (
{
anchors = (
{
name = bottom;
pos = (253,-324);
},
{
name = top;
pos = (253,121);
}
);
hints = (
{
horizontal = 1;
place = (0,101);
type = Stem;
},
{
horizontal = 1;
place = (-303,101);
type = Stem;
},
{
place = (152,101);
type = Stem;
},
{
place = (51,202);
type = Stem;
}
);
layerId = m01;
shapes = (
{
closed = 1;
nodes = (
(152,-202,l),
(51,-202,l),
(51,-303,l),
(253,-304,l),
(253,0,l),
(404,0,l),
(404,101,l),
(152,101,l)
);
}
);
width = 404;
}
);
note = uni0728.fina;
},
{
glyphname = uni0729;
lastChange = "2024-07-18 07:53:55 +0000";
layers = (
{
anchors = (
{
name = bottom;
pos = (304,-20);
},
{
name = top;
pos = (304,323);
}
);
hints = (
{
horizontal = 1;
place = (202,101);
type = Stem;
},
{
horizontal = 1;
place = (0,101);
type = Stem;
},
{
place = (354,101);
type = Stem;
},
{
place = (152,101);
type = Stem;
}
);
layerId = m01;
shapes = (
{
closed = 1;
nodes = (
(152,101,l),
(51,101,l),
(51,0,l),
(455,0,l),
(455,303,l),
(152,303,l)
);
},
{
closed = 1;
nodes = (
(354,202,l),
(354,101,l),
(253,101,l),
(253,202,l)
);
}
);
width = 455;
}
);
note = uni0729;
unicode = 1833;
},
{
glyphname = uni0729.fina;
lastChange = "2024-07-18 07:53:55 +0000";
layers = (
{
anchors = (
{
name = bottom;
pos = (304,-20);
},
{
name = top;
pos = (304,323);
}
);
hints = (
{
horizontal = 1;
place = (202,101);
type = Stem;
},
{
horizontal = 1;
place = (0,101);
type = Stem;
},
{
place = (354,101);
type = Stem;
},
{
place = (152,101);
type = Stem;
}
);
layerId = m01;
shapes = (
{
closed = 1;
nodes = (
(152,101,l),
(51,101,l),
(51,0,l),
(505,0,l),
(505,101,l),
(455,101,l),
(455,303,l),
(152,303,l)
);
},
{
closed = 1;
nodes = (
(354,202,l),
(354,101,l),
(253,101,l),
(253,202,l)
);
}
);
width = 505;
}
);
note = uni0729.fina;
},
{
glyphname = uni0729.medi;
lastChange = "2024-07-18 07:53:55 +0000";
layers = (
{
anchors = (
{
name = bottom;
pos = (253,-20);
},
{
name = top;
pos = (253,323);
}
);
hints = (
{
horizontal = 1;
place = (202,101);
type = Stem;
},
{
horizontal = 1;
place = (0,101);
type = Stem;
},
{
place = (303,101);
type = Stem;
},
{
place = (101,101);
type = Stem;
}
);
layerId = m01;
shapes = (
{
closed = 1;
nodes = (
(101,101,l),
(-50,101,l),
(-50,0,l),
(455,0,l),
(455,101,l),
(404,101,l),
(404,303,l),
(101,303,l)
);
},
{
closed = 1;
nodes = (
(303,202,l),
(303,101,l),
(202,101,l),
(202,202,l)
);
}
);
width = 454;
}
);
note = uni0729.medi;
},
{
glyphname = uni0729.init;
lastChange = "2024-07-18 07:53:55 +0000";
layers = (
{
anchors = (
{
name = bottom;
pos = (253,-20);
},
{
name = top;
pos = (253,323);
}
);
hints = (
{
horizontal = 1;
place = (202,101);
type = Stem;
},
{
horizontal = 1;
place = (0,101);
type = Stem;
},
{
place = (303,101);
type = Stem;
},
{
place = (101,101);
type = Stem;
}
);
layerId = m01;
shapes = (
{
closed = 1;
nodes = (
(101,101,l),
(-50,101,l),
(-50,0,l),
(404,0,l),
(404,303,l),
(101,303,l)
);
},
{
closed = 1;
nodes = (
(303,202,l),
(303,101,l),
(202,101,l),
(202,202,l)
);
}
);
width = 404;
}
);
note = uni0729.init;
},
{
glyphname = uni072A;
lastChange = "2024-07-18 07:53:55 +0000";
layers = (
{
anchors = (
{
name = bottom;
pos = (203,-20);
},
{
name = top;
pos = (203,475);
}
);
hints = (
{
horizontal = 1;
place = (354,101);
type = Stem;
},
{
horizontal = 1;
place = (202,101);
type = Stem;
},
{
horizontal = 1;
place = (0,21);
target = up;
type = BottomGhost;
},
{
place = (253,101);
type = Stem;
},
{
place = (152,101);
type = Stem;
}
);
layerId = m01;
shapes = (
{
closed = 1;
nodes = (
(253,455,l),
(152,455,l),
(152,354,l),
(253,354,l)
);
},
{
closed = 1;
nodes = (
(51,202,l),
(253,202,l),
(253,0,l),
(354,0,l),
(354,303,l),
(51,303,l)
);
}
);
width = 354;
}
);
note = uni072A;
unicode = 1834;
},
{
glyphname = uni072A.fina;
lastChange = "2024-07-18 07:53:55 +0000";
layers = (
{
anchors = (
{
name = bottom;
pos = (203,-20);
},
{
name = top;
pos = (203,475);
}
);
hints = (
{
horizontal = 1;
place = (354,101);
type = Stem;
},
{
horizontal = 1;
place = (202,101);
type = Stem;
},
{
horizontal = 1;
place = (0,101);
type = Stem;
},
{
place = (253,101);
type = Stem;
},
{
place = (152,101);
type = Stem;
}
);
layerId = m01;
shapes = (
{
closed = 1;
nodes = (
(253,455,l),
(152,455,l),
(152,354,l),
(253,354,l)
);
},
{
closed = 1;
nodes = (
(51,202,l),
(253,202,l),
(253,0,l),
(404,0,l),
(404,101,l),
(354,101,l),
(354,303,l),
(51,303,l)
);
}
);
width = 404;
}
);
note = uni072A.fina;
},
{
glyphname = uni072B;
lastChange = "2024-07-18 07:53:55 +0000";
layers = (
{
anchors = (
{
name = bottom;
pos = (304,-20);
},
{
name = top;
pos = (304,323);
}
);
hints = (
{
horizontal = 1;
place = (202,101);
type = Stem;
},
{
horizontal = 1;
place = (0,101);
type = Stem;
},
{
place = (253,101);
type = Stem;
}
);
layerId = m01;
shapes = (
{
closed = 1;
nodes = (
(253,101,l),
(51,101,l),
(51,0,l),
(543,0,l),
(543,101,l),
(354,101,l),
(354,202,l),
(455,202,l),
(455,303,l),
(152,303,l),
(152,202,l),
(253,202,l)
);
}
);
width = 543;
}
);
note = uni072B;
unicode = 1835;
},
{
glyphname = uni072B.fina;
lastChange = "2024-07-18 07:53:55 +0000";
layers = (
{
anchors = (
{
name = bottom;
pos = (304,-20);
},
{
name = top;
pos = (304,323);
}
);
hints = (
{
horizontal = 1;
place = (202,101);
type = Stem;
},
{
horizontal = 1;
place = (0,101);
type = Stem;
},
{
place = (253,101);
type = Stem;
}
);
layerId = m01;
shapes = (
{
closed = 1;
nodes = (
(253,101,l),
(51,101,l),
(51,0,l),
(594,0,l),
(594,101,l),
(354,101,l),
(354,202,l),
(455,202,l),
(455,303,l),
(152,303,l),
(152,202,l),
(253,202,l)
);
}
);
width = 593;
}
);
note = uni072B.fina;
},
{
glyphname = uni072B.medi;
lastChange = "2024-07-18 07:53:55 +0000";
layers = (
{
anchors = (
{
name = bottom;
pos = (253,-20);
},
{
name = top;
pos = (253,323);
}
);
hints = (
{
horizontal = 1;
place = (202,101);
type = Stem;
},
{
horizontal = 1;
place = (0,101);
type = Stem;
},
{
place = (202,101);
type = Stem;
}
);
layerId = m01;
shapes = (
{
closed = 1;
nodes = (
(202,101,l),
(-50,101,l),
(-50,0,l),
(543,0,l),
(543,101,l),
(303,101,l),
(303,202,l),
(404,202,l),
(404,303,l),
(101,303,l),
(101,202,l),
(202,202,l)
);
}
);
width = 543;
}
);
note = uni072B.medi;
},
{
glyphname = uni072B.init;
lastChange = "2024-07-18 07:53:55 +0000";
layers = (
{
anchors = (
{
name = bottom;
pos = (253,-20);
},
{
name = top;
pos = (253,323);
}
);
hints = (
{
horizontal = 1;
place = (202,101);
type = Stem;
},
{
horizontal = 1;
place = (0,101);
type = Stem;
},
{
place = (202,101);
type = Stem;
}
);
layerId = m01;
shapes = (
{
closed = 1;
nodes = (
(202,101,l),
(-50,101,l),
(-50,0,l),
(493,0,l),
(493,101,l),
(303,101,l),
(303,202,l),
(404,202,l),
(404,303,l),
(101,303,l),
(101,202,l),
(202,202,l)
);
}
);
width = 492;
}
);
note = uni072B.init;
},
{
glyphname = uni072C;
lastChange = "2024-07-18 07:53:55 +0000";
layers = (
{
anchors = (
{
name = bottom;
pos = (289,-20);
},
{
name = top;
pos = (289,525);
}
);
hints = (
{
horizontal = 1;
place = (100,102);
type = Stem;
},
{
place = (339,101);
type = Stem;
},
{
place = (152,87);
type = Stem;
}
);
layerId = m01;
shapes = (
{
closed = 1;
nodes = (
(152,202,l),
(152,100,l),
(238,100,l),
(238,202,l)
);
},
{
closed = 1;
nodes = (
(339,303,l),
(541,303,l),
(541,0,l),
(440,0,l),
(440,202,l),
(339,202,l),
(339,0,l),
(51,0,l),
(51,303,l),
(238,303,l),
(238,505,l),
(339,505,l)
);
}
);
width = 541;
}
);
note = uni072C;
unicode = 1836;
},
{
glyphname = uni072C.fina;
lastChange = "2024-07-18 07:53:55 +0000";
layers = (
{
anchors = (
{
name = bottom;
pos = (289,-20);
},
{
name = top;
pos = (289,525);
}
);
hints = (
{
horizontal = 1;
place = (101,101);
type = Stem;
},
{
place = (339,101);
type = Stem;
},
{
place = (152,87);
type = Stem;
}
);
layerId = m01;
shapes = (
{
closed = 1;
nodes = (
(152,202,l),
(152,101,l),
(238,101,l),
(238,202,l)
);
},
{
closed = 1;
nodes = (
(541,101,l),
(643,101,l),
(643,0,l),
(440,0,l),
(440,202,l),
(339,202,l),
(339,0,l),
(51,0,l),
(51,303,l),
(238,303,l),
(238,505,l),
(339,505,l),
(339,303,l),
(541,303,l)
);
}
);
width = 643;
}
);
note = uni072C.fina;
},
{
glyphname = uni0640;
lastChange = "2024-07-18 07:53:55 +0000";
layers = (
{
anchors = (
{
name = bottom;
pos = (95,-20);
},
{
name = top;
pos = (95,121);
}
);
hints = (
{
horizontal = 1;
place = (0,101);
type = Stem;
},
{
place = (0,190);
type = Stem;
}
);
layerId = m01;
shapes = (
{
closed = 1;
nodes = (
(190,101,l),
(0,101,l),
(0,0,l),
(190,0,l)
);
}
);
width = 190;
}
);
note = uni0640;
unicode = 1600;
},
{
glyphname = uni0700;
lastChange = "2024-07-18 07:53:55 +0000";
layers = (
{
hints = (
{
horizontal = 1;
place = (168,84);
type = Stem;
},
{
horizontal = 1;
place = (84,85);
type = Stem;
},
{
horizontal = 1;
place = (0,84);
type = Stem;
},
{
place = (190,84);
type = Stem;
},
{
place = (106,84);
type = Stem;
},
{
place = (22,84);
type = Stem;
}
);
layerId = m01;
shapes = (
{
closed = 1;
nodes = (
(274,109,l),
(274,193,l),
(191,193,l),
(191,277,l),
(106,277,l),
(106,194,l),
(22,194,l),
(22,109,l),
(106,109,l),
(106,193,l),
(190,193,l),
(190,109,l)
);
},
{
closed = 1;
nodes = (
(106,109,l),
(106,25,l),
(190,25,l),
(190,109,l)
);
}
);
width = 296;
}
);
note = uni0700;
unicode = 1792;
},
{
glyphname = uni0701;
lastChange = "2024-07-18 07:53:55 +0000";
layers = (
{
hints = (
{
horizontal = 1;
place = (157,56);
type = Stem;
},
{
place = (49,51);
type = Stem;
}
);
layerId = m01;
shapes = (
{
closed = 1;
nodes = (
(100,161,l),
(100,211,l),
(50,211,l),
(50,161,l)
);
}
);
width = 150;
}
);
note = uni0701;
unicode = 1793;
},
{
glyphname = uni0702;
lastChange = "2024-07-18 07:53:55 +0000";
layers = (
{
hints = (
{
horizontal = 1;
place = (-56,56);
type = Stem;
},
{
place = (39,51);
type = Stem;
}
);
layerId = m01;
shapes = (
{
closed = 1;
nodes = (
(100,-50,l),
(100,0,l),
(50,0,l),
(50,-50,l)
);
}
);
width = 150;
}
);
note = uni0702;
unicode = 1794;
},
{
glyphname = uni0703;
lastChange = "2024-07-18 07:53:55 +0000";
layers = (
{
hints = (
{
horizontal = 1;
place = (208,57);
type = Stem;
},
{
horizontal = 1;
place = (98,57);
type = Stem;
},
{
place = (39,51);
type = Stem;
}
);
layerId = m01;
shapes = (
{
closed = 1;
nodes = (
(100,208,l),
(100,258,l),
(50,258,l),
(50,208,l)
);
},
{
closed = 1;
nodes = (
(100,106,l),
(100,156,l),
(50,156,l),
(50,106,l)
);
}
);
width = 150;
}
);
note = uni0703;
unicode = 1795;
},
{
glyphname = uni0704;
layers = (
{
hints = (
{
horizontal = 1;
place = (0,57);
type = Stem;
},
{
horizontal = 1;
place = (-110,57);
type = Stem;
},
{
place = (39,51);
type = Stem;
}
);
layerId = m01;
shapes = (
{
closed = 1;
nodes = (
(100,0,l),
(100,50,l),
(50,50,l),
(50,0,l)
);
},
{
closed = 1;
nodes = (
(100,-102,l),
(100,-52,l),
(50,-52,l),
(50,-102,l)
);
}
);
width = 150;
}
);
note = uni0704;
unicode = 1796;
},
{
glyphname = uni0705;
lastChange = "2024-07-18 07:53:55 +0000";
layers = (
{
hints = (
{
horizontal = 1;
place = (157,56);
type = Stem;
},
{
place = (168,51);
type = Stem;
},
{
place = (49,51);
type = Stem;
}
);
layerId = m01;
shapes = (
{
closed = 1;
nodes = (
(152,157,l),
(202,157,l),
(202,207,l),
(152,207,l)
);
},
{
closed = 1;
nodes = (
(50,157,l),
(100,157,l),
(100,207,l),
(50,207,l)
);
}
);
width = 252;
}
);
note = uni0705;
unicode = 1797;
},
{
glyphname = uni0706;
lastChange = "2024-07-18 07:53:55 +0000";
layers = (
{
hints = (
{
horizontal = 1;
place = (122,57);
type = Stem;
},
{
horizontal = 1;
place = (0,57);
type = Stem;
},
{
place = (104,50);
type = Stem;
},
{
place = (39,51);
type = Stem;
}
);
layerId = m01;
shapes = (
{
closed = 1;
nodes = (
(105,100,l),
(105,150,l),
(55,150,l),
(55,100,l)
);
},
{
closed = 1;
nodes = (
(155,0,l),
(155,50,l),
(105,50,l),
(105,0,l)
);
}
);
width = 193;
}
);
note = uni0706;
unicode = 1798;
},
{
glyphname = uni0707;
lastChange = "2024-07-18 07:53:55 +0000";
layers = (
{
hints = (
{
horizontal = 1;
place = (122,57);
type = Stem;
},
{
horizontal = 1;
place = (0,57);
type = Stem;
},
{
place = (104,50);
type = Stem;
},
{
place = (39,51);
type = Stem;
}
);
layerId = m01;
shapes = (
{
closed = 1;
nodes = (
(140,150,l),
(90,150,l),
(90,100,l),
(140,100,l)
);
},
{
closed = 1;
nodes = (
(90,50,l),
(40,50,l),
(40,0,l),
(90,0,l)
);
}
);
width = 193;
}
);
note = uni0707;
unicode = 1799;
},
{
glyphname = uni0708;
lastChange = "2024-07-18 07:53:55 +0000";
layers = (
{
hints = (
{
horizontal = 1;
place = (208,57);
type = Stem;
},
{
horizontal = 1;
place = (99,56);
type = Stem;
},
{
place = (99,50);
type = Stem;
},
{
place = (39,51);
type = Stem;
}
);
layerId = m01;
shapes = (
{
closed = 1;
nodes = (
(96,205,l),
(96,255,l),
(46,255,l),
(46,205,l)
);
},
{
closed = 1;
nodes = (
(146,105,l),
(146,155,l),
(96,155,l),
(96,105,l)
);
}
);
width = 188;
}
);
note = uni0708;
unicode = 1800;
},
{
glyphname = uni0709;
lastChange = "2024-07-18 07:53:55 +0000";
layers = (
{
hints = (
{
horizontal = 1;
place = (0,57);
type = Stem;
},
{
horizontal = 1;
place = (-109,56);
type = Stem;
},
{
place = (99,50);
type = Stem;
},
{
place = (39,51);
type = Stem;
}
);
layerId = m01;
shapes = (
{
closed = 1;
nodes = (
(92,-9,l),
(92,41,l),
(42,41,l),
(42,-9,l)
);
},
{
closed = 1;
nodes = (
(142,-109,l),
(142,-59,l),
(92,-59,l),
(92,-109,l)
);
}
);
width = 188;
}
);
note = uni0709;
unicode = 1801;
},
{
glyphname = uni070A;
lastChange = "2024-07-18 07:53:55 +0000";
layers = (
{
hints = (
{
horizontal = 1;
place = (218,31);
type = Stem;
},
{
horizontal = 1;
place = (113,57);
type = Stem;
},
{
horizontal = 1;
place = (0,57);
type = Stem;
},
{
place = (171,22);
type = Stem;
},
{
place = (97,22);
type = Stem;
}
);
layerId = m01;
shapes = (
{
closed = 1;
nodes = (
(60,249,l),
(60,218,l),
(230,218,l),
(230,249,l),
(215,249,ls),
(203,249,o),
(193,253,o),
(193,268,cs),
(193,292,l),
(171,292,l),
(171,268,ls),
(171,253,o),
(160,249,o),
(148,249,cs),
(142,249,ls),
(130,249,o),
(119,253,o),
(119,268,cs),
(119,292,l),
(97,292,l),
(97,268,ls),
(97,253,o),
(87,249,o),
(75,249,cs)
);
},
{
closed = 1;
nodes = (
(119,122,o),
(130,113,o),
(145,113,cs),
(159,113,o),
(171,122,o),
(171,142,cs),
(171,162,o),
(159,170,o),
(145,170,cs),
(130,170,o),
(119,162,o),
(119,142,cs)
);
},
{
closed = 1;
nodes = (
(119,9,o),
(130,0,o),
(145,0,cs),
(159,0,o),
(171,9,o),
(171,29,cs),
(171,48,o),
(159,57,o),
(145,57,cs),
(130,57,o),
(119,48,o),
(119,29,cs)
);
}
);
width = 290;
}
);
note = uni070A;
unicode = 1802;
},
{
glyphname = uni070B;
lastChange = "2024-07-18 07:53:55 +0000";
layers = (
{
hints = (
{
horizontal = 1;
place = (291,30);
type = Stem;
},
{
horizontal = 1;
place = (194,57);
type = Stem;
},
{
place = (205,52);
type = Stem;
}
);
layerId = m01;
shapes = (
{
closed = 1;
nodes = (
(402,291,l),
(402,341,l),
(60,341,l),
(60,291,l)
);
},
{
closed = 1;
nodes = (
(256,191,l),
(256,241,l),
(206,241,l),
(206,191,l)
);
}
);
width = 462;
}
);
note = uni070B;
unicode = 1803;
},
{
glyphname = uni070C;
lastChange = "2024-07-18 07:53:55 +0000";
layers = (
{
hints = (
{
horizontal = 1;
place = (364,-20);
target = down;
type = TopGhost;
},
{
horizontal = 1;
place = (143,23);
type = Stem;
},
{
place = (261,23);
type = Stem;
},
{
place = (243,41);
type = Stem;
}
);
layerId = m01;
shapes = (
{
closed = 1;
nodes = (
(278,217,l),
(261,185,l),
(82,364,l),
(64,347,l),
(243,166,l),
(212,149,l),
(212,147,l),
(237,144,o),
(259,143,o),
(284,143,c),
(284,168,o),
(283,192,o),
(281,217,c)
);
}
);
width = 347;
}
);
note = uni070C;
unicode = 1804;
},
{
glyphname = uni070D;
lastChange = "2024-07-18 07:53:55 +0000";
layers = (
{
hints = (
{
horizontal = 1;
place = (214,100);
type = Stem;
},
{
horizontal = 1;
place = (214,46);
type = Stem;
},
{
horizontal = 1;
place = (162,25);
type = Stem;
},
{
horizontal = 1;
place = (89,46);
type = Stem;
},
{
place = (230,42);
type = Stem;
},
{
place = (177,26);
type = Stem;
},
{
place = (107,96);
type = Stem;
},
{
place = (107,42);
type = Stem;
}
);
layerId = m01;
shapes = (
{
closed = 1;
nodes = (
(15,211,l),
(15,146,l),
(158,146,l),
(158,4,l),
(223,4,l),
(223,146,l),
(365,146,l),
(365,211,l),
(223,211,l),
(223,354,l),
(158,354,l),
(158,211,l)
);
},
{
closed = 1;
nodes = (
(119,43,l),
(119,107,l),
(54,107,l),
(54,43,l)
);
},
{
closed = 1;
nodes = (
(119,250,l),
(119,315,l),
(54,315,l),
(54,250,l)
);
},
{
closed = 1;
nodes = (
(327,43,l),
(327,107,l),
(262,107,l),
(262,43,l)
);
},
{
closed = 1;
nodes = (
(327,250,l),
(327,315,l),
(262,315,l),
(262,250,l)
);
}
);
width = 380;
}
);
note = uni070D;
unicode = 1805;
},
{
glyphname = uni070F;
lastChange = "2024-07-18 07:53:55 +0000";
layers = (
{
hints = (
{
horizontal = 1;
place = (390,17);
type = Stem;
},
{
place = (-6,18);
type = Stem;
}
);
layerId = m01;
shapes = (
{
closed = 1;
nodes = (
(-43,407,l),
(-43,390,l),
(-6,390,l),
(-6,-45,l),
(12,-45,l),
(12,390,l),
(49,390,l),
(49,407,l)
);
}
);
width = 0;
}
);
note = uni070F;
unicode = 1807;
},
{
glyphname = uni0730;
layers = (
{
anchors = (
{
name = _top;
pos = (50,287);
}
);
hints = (
{
horizontal = 1;
place = (365,-20);
target = down;
type = TopGhost;
},
{
horizontal = 1;
place = (281,-20);
target = down;
type = TopGhost;
},
{
place = (-42,17);
type = Stem;
}
);
layerId = m01;
shapes = (
{
closed = 1;
nodes = (
(16,375,l),
(16,332,l),
(0,332,l),
(0,307,l),
(101,307,l),
(101,332,l),
(85,332,l),
(85,375,l)
);
},
{
closed = 1;
nodes = (
(41,350,l),
(60,350,l),
(60,332,l),
(41,332,l)
);
}
);
width = 101;
}
);
note = uni0730;
unicode = 1840;
},
{
glyphname = uni0731;
layers = (
{
anchors = (
{
name = _bottom;
pos = (50,20);
}
);
hints = (
{
horizontal = 1;
place = (-94,97);
type = Stem;
},
{
place = (26,17);
type = Stem;
}
);
layerId = m01;
shapes = (
{
closed = 1;
nodes = (
(85,-25,l),
(101,-25,l),
(101,0,l),
(0,0,l),
(0,-25,l),
(16,-25,l),
(16,-68,l),
(85,-68,l)
);
},
{
closed = 1;
nodes = (
(60,-25,l),
(60,-43,l),
(41,-43,l),
(41,-25,l)
);
}
);
width = 101;
}
);
note = uni0731;
unicode = 1841;
},
{
glyphname = uni0732;
kernLeft = "1";
kernRight = "1";
layers = (
{
anchors = (
{
name = _top;
pos = (1,277);
}
);
hints = (
{
horizontal = 1;
place = (-60,391);
type = Stem;
},
{
place = (-22,45);
type = Stem;
}
);
layerId = m01;
shapes = (
{
closed = 1;
nodes = (
(13,381,l),
(-12,381,l),
(-12,330,l),
(13,330,l)
);
},
{
closed = 1;
nodes = (
(13,-10,l),
(-12,-10,l),
(-12,-61,l),
(13,-61,l)
);
}
);
width = 0;
}
);
note = uni0732;
unicode = 1842;
},
{
glyphname = uni0733;
layers = (
{
anchors = (
{
name = _top;
pos = (50,277);
}
);
hints = (
{
horizontal = 1;
place = (280,-20);
target = down;
type = TopGhost;
},
{
horizontal = 1;
place = (359,18);
type = Stem;
},
{
place = (21,18);
type = Stem;
},
{
place = (-30,18);
type = Stem;
}
);
layerId = m01;
shapes = (
{
closed = 1;
nodes = (
(0,322,l),
(0,297,l),
(100,297,l),
(100,372,l),
(25,372,l),
(25,322,l)
);
},
{
closed = 1;
nodes = (
(50,347,l),
(75,347,l),
(75,322,l),
(50,322,l)
);
}
);
width = 100;
}
);
note = uni0733;
unicode = 1843;
},
{
glyphname = uni0734;
layers = (
{
anchors = (
{
name = _bottom;
pos = (50,20);
}
);
hints = (
{
horizontal = 1;
place = (-107,19);
type = Stem;
},
{
place = (13,18);
type = Stem;
},
{
place = (-39,19);
type = Stem;
}
);
layerId = m01;
shapes = (
{
closed = 1;
nodes = (
(100,-25,l),
(100,0,l),
(0,0,l),
(0,-75,l),
(75,-75,l),
(75,-25,l)
);
},
{
closed = 1;
nodes = (
(50,-50,l),
(25,-50,l),
(25,-25,l),
(50,-25,l)
);
}
);
width = 100;
}
);
note = uni0734;
unicode = 1844;
},
{
glyphname = uni0735;
kernLeft = "1";
kernRight = "1";
layers = (
{
anchors = (
{
name = _top;
pos = (51,307);
}
);
hints = (
{
horizontal = 1;
place = (276,103);
type = Stem;
},
{
place = (-28,54);
type = Stem;
}
);
layerId = m01;
shapes = (
{
closed = 1;
nodes = (
(101,378,l),
(76,378,l),
(76,327,l),
(101,327,l)
);
},
{
closed = 1;
nodes = (
(25,404,l),
(0,404,l),
(0,353,l),
(25,353,l)
);
}
);
width = 101;
}
);
note = uni0735;
unicode = 1845;
},
{
glyphname = uni0736;
layers = (
{
anchors = (
{
name = _top;
pos = (51,269);
}
);
hints = (
{
horizontal = 1;
place = (337,17);
type = Stem;
},
{
place = (37,19);
type = Stem;
}
);
layerId = m01;
shapes = (
{
closed = 1;
nodes = (
(101,289,l),
(101,354,l),
(0,354,l),
(0,289,l),
(25,289,l),
(25,329,l),
(42,329,l),
(42,294,l),
(59,294,l),
(59,329,l),
(76,329,l),
(76,289,l)
);
}
);
width = 101;
}
);
note = uni0736;
unicode = 1846;
},
{
glyphname = uni0737;
layers = (
{
anchors = (
{
name = _bottom;
pos = (51,12);
}
);
hints = (
{
horizontal = 1;
place = (-83,17);
type = Stem;
},
{
horizontal = 1;
place = (-3,21);
target = up;
type = BottomGhost;
},
{
place = (-55,18);
type = Stem;
}
);
layerId = m01;
shapes = (
{
closed = 1;
nodes = (
(76,-40,l),
(59,-40,l),
(59,-5,l),
(42,-5,l),
(42,-40,l),
(25,-40,l),
(25,0,l),
(0,0,l),
(0,-65,l),
(101,-65,l),
(101,0,l),
(76,0,l)
);
}
);
width = 101;
}
);
note = uni0737;
unicode = 1847;
},
{
glyphname = uni0738;
kernLeft = "1";
kernRight = "1";
layers = (
{
anchors = (
{
name = _bottom;
pos = (51,13);
}
);
hints = (
{
horizontal = 1;
place = (-60,56);
type = Stem;
},
{
place = (-44,88);
type = Stem;
}
);
layerId = m01;
shapes = (
{
closed = 1;
nodes = (
(25,-7,l),
(0,-7,l),
(0,-58,l),
(25,-58,l)
);
},
{
closed = 1;
nodes = (
(101,-7,l),
(76,-7,l),
(76,-58,l),
(101,-58,l)
);
}
);
width = 101;
}
);
note = uni0738;
unicode = 1848;
},
{
glyphname = uni0739;
kernLeft = "1";
kernRight = "1";
layers = (
{
anchors = (
{
name = _bottom;
pos = (51,16);
}
);
hints = (
{
horizontal = 1;
place = (-83,79);
type = Stem;
},
{
place = (-46,90);
type = Stem;
}
);
layerId = m01;
shapes = (
{
closed = 1;
nodes = (
(25,-81,l),
(25,-30,l),
(0,-30,l),
(0,-81,l)
);
},
{
closed = 1;
nodes = (
(101,-55,l),
(101,-4,l),
(76,-4,l),
(76,-55,l)
);
}
);
width = 101;
}
);
note = uni0739;
unicode = 1849;
},
{
glyphname = uni073A;
layers = (
{
anchors = (
{
name = _top;
pos = (51,212);
}
);
hints = (
{
horizontal = 1;
place = (362,-20);
target = down;
type = TopGhost;
},
{
horizontal = 1;
place = (279,-20);
target = down;
type = TopGhost;
},
{
place = (-58,113);
type = Stem;
}
);
layerId = m01;
shapes = (
{
closed = 1;
nodes = (
(63,257,l),
(63,274,l),
(101,274,l),
(101,299,l),
(0,299,l),
(0,274,l),
(38,274,l),
(38,257,l),
(0,257,l),
(0,232,l),
(101,232,l),
(101,257,l)
);
}
);
width = 101;
}
);
note = uni073A;
unicode = 1850;
},
{
glyphname = uni073B;
layers = (
{
anchors = (
{
name = _bottom;
pos = (51,20);
}
);
hints = (
{
horizontal = 1;
place = (-8,21);
target = up;
type = BottomGhost;
},
{
place = (-55,114);
type = Stem;
}
);
layerId = m01;
shapes = (
{
closed = 1;
nodes = (
(63,-42,l),
(63,-25,l),
(101,-25,l),
(101,0,l),
(0,0,l),
(0,-25,l),
(38,-25,l),
(38,-42,l),
(0,-42,l),
(0,-67,l),
(101,-67,l),
(101,-42,l)
);
}
);
width = 101;
}
);
note = uni073B;
unicode = 1851;
},
{
glyphname = uni073C;
kernLeft = "1";
kernRight = "1";
layers = (
{
anchors = (
{
name = _bottom;
pos = (14,10);
}
);
hints = (
{
horizontal = 1;
place = (-60,56);
type = Stem;
},
{
place = (-17,34);
type = Stem;
}
);
layerId = m01;
shapes = (
{
closed = 1;
nodes = (
(26,-10,l),
(1,-10,l),
(1,-61,l),
(26,-61,l)
);
}
);
width = 27;
}
);
note = uni073C;
unicode = 1852;
},
{
glyphname = uni073D;
layers = (
{
anchors = (
{
name = _top;
pos = (58,249);
}
);
hints = (
{
horizontal = 1;
place = (271,33);
type = Stem;
},
{
place = (-15,30);
type = Stem;
}
);
layerId = m01;
shapes = (
{
closed = 1;
nodes = (
(0,352,l),
(0,327,l),
(58,327,l),
(58,269,l),
(83,269,l),
(83,327,l),
(108,327,l),
(108,351,l)
);
},
{
closed = 1;
nodes = (
(40,287,l),
(40,309,l),
(18,309,l),
(18,287,l)
);
}
);
width = 108;
}
);
note = uni073D;
unicode = 1853;
},
{
glyphname = uni073E;
layers = (
{
anchors = (
{
name = _bottom;
pos = (50,20);
}
);
hints = (
{
horizontal = 1;
place = (-33,33);
type = Stem;
},
{
place = (-14,30);
type = Stem;
}
);
layerId = m01;
shapes = (
{
closed = 1;
nodes = (
(108,-83,l),
(108,-58,l),
(50,-58,l),
(50,0,l),
(25,0,l),
(25,-58,l),
(0,-58,l),
(0,-82,l)
);
},
{
closed = 1;
nodes = (
(68,-18,l),
(68,-40,l),
(90,-40,l),
(90,-18,l)
);
}
);
width = 108;
}
);
note = uni073E;
unicode = 1854;
},
{
glyphname = uni073F;
kernLeft = "1";
kernRight = "1";
layers = (
{
anchors = (
{
name = _top;
pos = (14,257);
}
);
hints = (
{
horizontal = 1;
place = (275,56);
type = Stem;
},
{
place = (-18,35);
type = Stem;
}
);
layerId = m01;
shapes = (
{
closed = 1;
nodes = (
(26,334,l),
(1,334,l),
(1,283,l),
(26,283,l)
);
}
);
width = 27;
}
);
note = uni073F;
unicode = 1855;
},
{
glyphname = uni0740;
layers = (
{
anchors = (
{
name = _top;
pos = (-174,118);
}
);
hints = (
{
horizontal = 1;
place = (168,57);
type = Stem;
},
{
place = (-199,51);
type = Stem;
}
);
layerId = m01;
shapes = (
{
closed = 1;
nodes = (
(-148,229,l),
(-148,279,l),
(-198,279,l),
(-198,229,l)
);
}
);
width = 0;
}
);
note = uni0740;
unicode = 1856;
},
{
glyphname = uni0741;
layers = (
{
anchors = (
{
name = _top;
pos = (27,333);
}
);
hints = (
{
horizontal = 1;
place = (279,35);
type = Stem;
},
{
place = (-29,31);
type = Stem;
}
);
layerId = m01;
shapes = (
{
closed = 1;
nodes = (
(52,404,l),
(1,404,l),
(1,353,l),
(52,353,l)
);
}
);
width = 53;
}
);
note = uni0741;
unicode = 1857;
},
{
glyphname = uni0742;
kernLeft = "1";
kernRight = "1";
layers = (
{
anchors = (
{
name = _bottom;
pos = (26,3);
}
);
hints = (
{
horizontal = 1;
place = (-48,35);
type = Stem;
},
{
place = (-16,32);
type = Stem;
}
);
layerId = m01;
shapes = (
{
closed = 1;
nodes = (
(52,-18,l),
(1,-18,l),
(1,-69,l),
(52,-69,l)
);
}
);
width = 53;
}
);
note = uni0742;
unicode = 1858;
},
{
glyphname = uni0743;
layers = (
{
anchors = (
{
name = _top;
pos = (25,221);
}
);
hints = (
{
horizontal = 1;
place = (333,42);
type = Stem;
},
{
horizontal = 1;
place = (271,42);
type = Stem;
},
{
place = (-19,38);
type = Stem;
}
);
layerId = m01;
shapes = (
{
closed = 1;
nodes = (
(51,352,l),
(51,402,l),
(1,402,l),
(1,352,l)
);
},
{
closed = 1;
nodes = (
(51,277,l),
(51,327,l),
(1,327,l),
(1,277,l)
);
}
);
width = 52;
}
);
note = uni0743;
unicode = 1859;
},
{
glyphname = uni0744;
layers = (
{
anchors = (
{
name = _bottom;
pos = (25,50);
}
);
hints = (
{
horizontal = 1;
place = (-41,41);
type = Stem;
},
{
horizontal = 1;
place = (-103,41);
type = Stem;
},
{
place = (-19,38);
type = Stem;
}
);
layerId = m01;
shapes = (
{
closed = 1;
nodes = (
(51,-51,l),
(51,-1,l),
(1,-1,l),
(1,-51,l)
);
},
{
closed = 1;
nodes = (
(51,-126,l),
(51,-76,l),
(1,-76,l),
(1,-126,l)
);
}
);
width = 52;
}
);
note = uni0744;
unicode = 1860;
},
{
glyphname = uni0745;
layers = (
{
anchors = (
{
name = _top;
pos = (0,221);
}
);
hints = (
{
horizontal = 1;
place = (333,42);
type = Stem;
},
{
horizontal = 1;
place = (271,42);
type = Stem;
},
{
place = (16,37);
type = Stem;
},
{
place = (-19,38);
type = Stem;
},
{
place = (-53,38);
type = Stem;
}
);
layerId = m01;
shapes = (
{
closed = 1;
nodes = (
(-26,277,l),
(-26,327,l),
(-76,327,l),
(-76,277,l)
);
},
{
closed = 1;
nodes = (
(74,277,l),
(74,327,l),
(24,327,l),
(24,277,l)
);
},
{
closed = 1;
nodes = (
(24,352,l),
(24,402,l),
(-26,402,l),
(-26,352,l)
);
}
);
width = 0;
}
);
note = uni0745;
unicode = 1861;
},
{
glyphname = uni0746;
layers = (
{
anchors = (
{
name = _bottom;
pos = (0,50);
}
);
hints = (
{
horizontal = 1;
place = (-41,41);
type = Stem;
},
{
horizontal = 1;
place = (-103,41);
type = Stem;
},
{
place = (16,37);
type = Stem;
},
{
place = (-19,38);
type = Stem;
},
{
place = (-53,38);
type = Stem;
}
);
layerId = m01;
shapes = (
{
closed = 1;
nodes = (
(-76,-53,l),
(-26,-53,l),
(-26,-3,l),
(-76,-3,l)
);
},
{
closed = 1;
nodes = (
(24,-53,l),
(74,-53,l),
(74,-3,l),
(24,-3,l)
);
},
{
closed = 1;
nodes = (
(-26,-128,l),
(24,-128,l),
(24,-78,l),
(-26,-78,l)
);
}
);
width = 0;
}
);
note = uni0746;
unicode = 1862;
},
{
glyphname = uni0747;
layers = (
{
anchors = (
{
name = _top;
pos = (50,248);
},
{
name = top;
pos = (50,345);
}
);
hints = (
{
horizontal = 1;
place = (277,-20);
target = down;
type = TopGhost;
},
{
place = (-56,107);
type = Stem;
}
);
layerId = m01;
shapes = (
{
closed = 1;
nodes = (
(101,298,l),
(101,323,l),
(0,323,l),
(0,298,l)
);
}
);
width = 101;
}
);
note = uni0747;
unicode = 1863;
},
{
glyphname = uni0748;
layers = (
{
anchors = (
{
name = _bottom;
pos = (50,20);
},
{
name = bottom;
pos = (50,-45);
}
);
hints = (
{
horizontal = 1;
place = (-6,21);
target = up;
type = BottomGhost;
},
{
place = (-56,107);
type = Stem;
}
);
layerId = m01;
shapes = (
{
closed = 1;
nodes = (
(101,-25,l),
(101,0,l),
(0,0,l),
(0,-25,l)
);
}
);
width = 101;
}
);
note = uni0748;
unicode = 1864;
},
{
glyphname = uni0749;
layers = (
{
anchors = (
{
name = _top;
pos = (50,306);
}
);
hints = (
{
horizontal = 1;
place = (365,-20);
target = down;
type = TopGhost;
},
{
horizontal = 1;
place = (358,-20);
target = down;
type = TopGhost;
},
{
horizontal = 1;
place = (277,-20);
target = down;
type = TopGhost;
},
{
place = (-86,174);
type = Stem;
}
);
layerId = m01;
shapes = (
{
closed = 1;
nodes = (
(26,347,l),
(26,360,l),
(20,360,l),
(20,347,l),
(0,347,l),
(0,340,l),
(20,340,l),
(20,326,l),
(26,326,l),
(26,340,l),
(33,340,l),
(33,326,l),
(40,326,l),
(40,340,l),
(47,340,l),
(47,326,l),
(53,326,l),
(53,340,l),
(60,340,l),
(60,326,l),
(67,326,l),
(67,340,l),
(74,340,l),
(74,326,l),
(80,326,l),
(80,340,l),
(101,340,l),
(101,347,l),
(80,347,l),
(80,360,l),
(74,360,l),
(74,347,l),
(67,347,l),
(67,360,l),
(60,360,l),
(60,347,l),
(53,347,l),
(53,360,l),
(47,360,l),
(47,347,l),
(40,347,l),
(40,360,l),
(33,360,l),
(33,347,l)
);
}
);
width = 101;
}
);
note = uni0749;
unicode = 1865;
},
{
glyphname = uni074A;
layers = (
{
anchors = (
{
name = _top;
pos = (68,221);
}
);
hints = (
{
horizontal = 1;
place = (352,44);
type = Stem;
},
{
horizontal = 1;
place = (352,20);
type = Stem;
},
{
horizontal = 1;
place = (328,12);
type = Stem;
},
{
horizontal = 1;
place = (295,21);
type = Stem;
},
{
horizontal = 1;
place = (271,45);
type = Stem;
},
{
place = (18,43);
type = Stem;
},
{
place = (-6,43);
type = Stem;
},
{
place = (-6,12);
type = Stem;
},
{
place = (-37,19);
type = Stem;
},
{
place = (-61,43);
type = Stem;
}
);
layerId = m01;
shapes = (
{
closed = 1;
nodes = (
(0,340,l),
(0,315,l),
(55,315,l),
(55,260,l),
(80,260,l),
(80,315,l),
(135,315,l),
(135,340,l),
(80,340,l),
(80,395,l),
(55,395,l),
(55,340,l)
);
},
{
closed = 1;
nodes = (
(40,275,l),
(40,300,l),
(15,300,l),
(15,275,l)
);
},
{
closed = 1;
nodes = (
(40,355,l),
(40,380,l),
(15,380,l),
(15,355,l)
);
},
{
closed = 1;
nodes = (
(120,275,l),
(120,300,l),
(95,300,l),
(95,275,l)
);
},
{
closed = 1;
nodes = (
(120,355,l),
(120,380,l),
(95,380,l),
(95,355,l)
);
}
);
width = 135;
}
);
note = uni074A;
unicode = 1866;
},
{
glyphname = uni0303;
layers = (
{
anchors = (
{
name = _top;
pos = (53,287);
},
{
name = top;
pos = (53,327);
}
);
hints = (
{
horizontal = 1;
place = (292,23);
type = Stem;
},
{
horizontal = 1;
place = (271,44);
type = Stem;
},
{
horizontal = 1;
place = (271,23);
type = Stem;
},
{
place = (47,19);
type = Stem;
},
{
place = (-65,19);
type = Stem;
}
);
layerId = m01;
shapes = (
{
closed = 1;
nodes = (
(76,327,l),
(76,307,l),
(61,307,l),
(61,327,l),
(0,327,l),
(0,287,l),
(25,287,l),
(25,307,l),
(40,307,l),
(40,287,l),
(101,287,l),
(101,327,l)
);
}
);
width = 101;
}
);
note = uni0303;
unicode = 771;
},
{
glyphname = uni0304;
layers = (
{
anchors = (
{
name = _top;
pos = (0,280);
},
{
name = top;
pos = (0,305);
}
);
hints = (
{
horizontal = 1;
place = (275,23);
type = Stem;
},
{
place = (-63,127);
type = Stem;
}
);
layerId = m01;
shapes = (
{
closed = 1;
nodes = (
(51,280,l),
(51,305,l),
(-50,305,l),
(-50,280,l)
);
}
);
width = 0;
}
);
note = uni0304;
unicode = 772;
},
{
glyphname = uni0307;
layers = (
{
anchors = (
{
name = _top;
pos = (26,277);
},
{
name = top;
pos = (26,327);
}
);
hints = (
{
horizontal = 1;
place = (273,56);
type = Stem;
},
{
place = (-25,51);
type = Stem;
}
);
layerId = m01;
shapes = (
{
closed = 1;
nodes = (
(51,277,l),
(51,327,l),
(1,327,l),
(1,277,l)
);
}
);
width = 52;
}
);
note = uni0307;
unicode = 775;
},
{
glyphname = uni0308;
kernLeft = "1";
kernRight = "1";
layers = (
{
anchors = (
{
name = _top;
pos = (119,266);
},
{
name = top;
pos = (119,418);
}
);
hints = (
{
horizontal = 1;
place = (273,56);
type = Stem;
},
{
place = (17,50);
type = Stem;
},
{
place = (-68,51);
type = Stem;
}
);
layerId = m01;
shapes = (
{
closed = 1;
nodes = (
(102,398,l),
(1,398,l),
(1,297,l),
(102,297,l)
);
},
{
closed = 1;
nodes = (
(237,398,l),
(136,398,l),
(136,297,l),
(237,297,l)
);
}
);
width = 238;
}
);
note = uni0308;
unicode = 776;
},
{
glyphname = uni030A;
layers = (
{
anchors = (
{
name = _top;
pos = (0,277);
},
{
name = top;
pos = (0,352);
}
);
hints = (
{
horizontal = 1;
place = (323,15);
type = Stem;
},
{
horizontal = 1;
place = (274,15);
type = Stem;
},
{
place = (16,16);
type = Stem;
},
{
place = (-32,16);
type = Stem;
}
);
layerId = m01;
shapes = (
{
closed = 1;
nodes = (
(-38,352,l),
(37,352,l),
(37,277,l),
(-38,277,l)
);
},
{
closed = 1;
nodes = (
(-13,302,l),
(12,302,l),
(12,327,l),
(-13,327,l)
);
}
);
width = 0;
}
);
note = uni030A;
unicode = 778;
},
{
glyphname = uni0320;
layers = (
{
anchors = (
{
name = _bottom;
pos = (65,20);
},
{
name = bottom;
pos = (65,-56);
}
);
hints = (
{
horizontal = 1;
place = (-26,22);
type = Stem;
},
{
place = (-63,127);
type = Stem;
}
);
layerId = m01;
shapes = (
{
closed = 1;
nodes = (
(128,-26,l),
(128,-4,l),
(1,-4,l),
(1,-26,l)
);
}
);
width = 129;
}
);
note = uni0320;
unicode = 800;
},
{
glyphname = uni0323;
layers = (
{
anchors = (
{
name = _bottom;
pos = (26,0);
},
{
name = bottom;
pos = (26,-51);
}
);
hints = (
{
horizontal = 1;
place = (-58,57);
type = Stem;
},
{
place = (-25,51);
type = Stem;
}
);
layerId = m01;
shapes = (
{
closed = 1;
nodes = (
(51,-51,l),
(51,-1,l),
(1,-1,l),
(1,-51,l)
);
}
);
width = 52;
}
);
note = uni0323;
unicode = 803;
},
{
glyphname = uni0324;
kernLeft = "1";
kernRight = "1";
layers = (
{
anchors = (
{
name = _bottom;
pos = (119,2);
},
{
name = bottom;
pos = (119,-150);
}
);
hints = (
{
horizontal = 1;
place = (-56,56);
type = Stem;
},
{
place = (17,50);
type = Stem;
},
{
place = (-68,51);
type = Stem;
}
);
layerId = m01;
shapes = (
{
closed = 1;
nodes = (
(102,-29,l),
(1,-29,l),
(1,-130,l),
(102,-130,l)
);
},
{
closed = 1;
nodes = (
(237,-29,l),
(136,-29,l),
(136,-130,l),
(237,-130,l)
);
}
);
width = 238;
}
);
note = uni0324;
unicode = 804;
},
{
glyphname = uni0325;
layers = (
{
anchors = (
{
name = _bottom;
},
{
name = bottom;
pos = (0,-76);
}
);
hints = (
{
horizontal = 1;
place = (-18,15);
type = Stem;
},
{
horizontal = 1;
place = (-67,15);
type = Stem;
},
{
place = (17,15);
type = Stem;
},
{
place = (-32,16);
type = Stem;
}
);
layerId = m01;
shapes = (
{
closed = 1;
nodes = (
(-38,-1,l),
(37,-1,l),
(37,-76,l),
(-38,-76,l)
);
},
{
closed = 1;
nodes = (
(-13,-51,l),
(12,-51,l),
(12,-26,l),
(-13,-26,l)
);
}
);
width = 0;
}
);
note = uni0325;
unicode = 805;
},
{
glyphname = uni032D;
layers = (
{
anchors = (
{
name = _bottom;
},
{
name = bottom;
pos = (0,-50);
}
);
hints = (
{
horizontal = 1;
place = (-20,20);
type = Stem;
},
{
horizontal = 1;
place = (-50,50);
type = Stem;
},
{
place = (-60,120);
type = Stem;
}
);
layerId = m01;
shapes = (
{
closed = 1;
nodes = (
(-37,-50,l),
(0,-20,l),
(35,-50,l),
(60,-50,l),
(60,-48,l),
(11,0,l),
(-10,0,l),
(-60,-48,l),
(-60,-50,l)
);
}
);
width = 0;
}
);
note = uni032D;
unicode = 813;
},
{
glyphname = uni032E;
layers = (
{
anchors = (
{
name = _bottom;
pos = (101,-19);
},
{
name = bottom;
pos = (101,-55);
}
);
hints = (
{
horizontal = 1;
place = (-30,23);
type = Stem;
},
{
place = (45,19);
type = Stem;
},
{
place = (-63,19);
type = Stem;
}
);
layerId = m01;
shapes = (
{
closed = 1;
nodes = (
(165,25,l),
(165,-19,l),
(36,-19,l),
(36,25,l),
(0,25,l),
(0,-55,l),
(202,-55,l),
(202,25,l)
);
}
);
width = 202;
}
);
note = uni032E;
unicode = 814;
},
{
glyphname = uni0330;
layers = (
{
anchors = (
{
name = _bottom;
pos = (53,6);
},
{
name = bottom;
pos = (53,-34);
}
);
hints = (
{
horizontal = 1;
place = (-23,24);
type = Stem;
},
{
horizontal = 1;
place = (-44,24);
type = Stem;
},
{
place = (47,18);
type = Stem;
},
{
place = (-65,18);
type = Stem;
}
);
layerId = m01;
shapes = (
{
closed = 1;
nodes = (
(76,6,l),
(76,-14,l),
(61,-14,l),
(61,6,l),
(0,6,l),
(0,-34,l),
(25,-34,l),
(25,-14,l),
(40,-14,l),
(40,-34,l),
(101,-34,l),
(101,6,l)
);
}
);
width = 101;
}
);
note = uni0330;
unicode = 816;
},
{
glyphname = uni0331;
layers = (
{
anchors = (
{
name = _bottom;
pos = (0,-4);
},
{
name = bottom;
pos = (0,-29);
}
);
hints = (
{
horizontal = 1;
place = (-26,22);
type = Stem;
},
{
place = (-63,127);
type = Stem;
}
);
layerId = m01;
shapes = (
{
closed = 1;
nodes = (
(51,-29,l),
(51,-4,l),
(-50,-4,l),
(-50,-29,l)
);
}
);
width = 0;
}
);
note = uni0331;
unicode = 817;
},
{
glyphname = uni066A;
lastChange = "2024-07-18 07:53:55 +0000";
layers = (
{
hints = (
{
horizontal = 1;
place = (235,58);
type = Stem;
},
{
horizontal = 1;
place = (-5,58);
type = Stem;
},
{
horizontal = 1;
place = (0,21);
target = up;
type = BottomGhost;
},
{
place = (145,59);
type = Stem;
},
{
place = (24,59);
type = Stem;
}
);
layerId = m01;
shapes = (
{
closed = 1;
nodes = (
(58,0,l),
(209,293,l),
(173,293,l),
(21,0,l)
);
},
{
closed = 1;
nodes = (
(69,235,o),
(83,247,o),
(83,265,cs),
(83,282,o),
(66,293,o),
(53,293,cs),
(41,293,o),
(24,282,o),
(24,265,cs),
(24,245,o),
(40,235,o),
(54,235,cs)
);
},
{
closed = 1;
nodes = (
(190,-5,o),
(204,7,o),
(204,25,cs),
(204,42,o),
(187,53,o),
(174,53,cs),
(162,53,o),
(145,42,o),
(145,25,cs),
(145,6,o),
(161,-5,o),
(176,-5,cs)
);
}
);
width = 230;
}
);
note = uni066A;
unicode = 1642;
},
{
glyphname = period;
lastChange = "2024-07-18 07:53:55 +0000";
layers = (
{
hints = (
{
horizontal = 1;
place = (-7,66);
type = Stem;
},
{
place = (37,59);
type = Stem;
}
);
layerId = m01;
shapes = (
{
closed = 1;
nodes = (
(125,0,l),
(125,100,l),
(25,100,l),
(25,0,l)
);
}
);
width = 150;
}
);
note = period;
unicode = 46;
},
{
glyphname = uni060C;
lastChange = "2024-07-18 07:53:55 +0000";
layers = (
{
hints = (
{
horizontal = 1;
place = (0,123);
type = Stem;
},
{
place = (32,68);
type = Stem;
}
);
layerId = m01;
shapes = (
{
closed = 1;
nodes = (
(36,0,l),
(72,0,l),
(78,31,o),
(91,89,o),
(100,123,c),
(69,123,l),
(58,92,o),
(41,36,o),
(32,6,c)
);
}
);
width = 139;
}
);
note = uni060C;
unicode = 1548;
},
{
glyphname = uni061B;
lastChange = "2024-07-18 07:53:55 +0000";
layers = (
{
hints = (
{
horizontal = 1;
place = (128,122);
type = Stem;
},
{
horizontal = 1;
place = (0,57);
type = Stem;
},
{
place = (39,51);
type = Stem;
}
);
layerId = m01;
shapes = (
{
closed = 1;
nodes = (
(47,128,l),
(78,128,l),
(84,159,o),
(97,216,o),
(106,250,c),
(80,250,l),
(69,219,o),
(52,164,o),
(43,133,c)
);
},
{
closed = 1;
nodes = (
(39,8,o),
(49,0,o),
(64,0,cs),
(80,0,o),
(90,10,o),
(90,28,cs),
(90,47,o),
(80,57,o),
(64,57,cs),
(48,57,o),
(39,47,o),
(39,28,cs)
);
}
);
width = 129;
}
);
note = uni061B;
unicode = 1563;
},
{
glyphname = colon;
lastChange = "2024-07-18 07:53:55 +0000";
layers = (
{
hints = (
{
horizontal = 1;
place = (123,56);
type = Stem;
},
{
horizontal = 1;
place = (0,57);
type = Stem;
},
{
place = (39,51);
type = Stem;
}
);
layerId = m01;
shapes = (
{
closed = 1;
nodes = (
(152,233,l),
(51,233,l),
(51,132,l),
(152,132,l)
);
},
{
closed = 1;
nodes = (
(152,101,l),
(51,101,l),
(51,0,l),
(152,0,l)
);
}
);
width = 177;
}
);
note = colon;
unicode = 58;
},
{
glyphname = uni061F;
lastChange = "2024-07-18 07:53:55 +0000";
layers = (
{
hints = (
{
horizontal = 1;
place = (273,36);
type = Stem;
},
{
horizontal = 1;
place = (0,57);
type = Stem;
},
{
place = (99,32);
type = Stem;
},
{
place = (89,50);
type = Stem;
},
{
place = (16,38);
type = Stem;
}
);
layerId = m01;
shapes = (
{
closed = 1;
nodes = (
(134,0,l),
(134,50,l),
(84,50,l),
(84,0,l)
);
},
{
closed = 1;
nodes = (
(134,87,l),
(134,187,l),
(59,187,l),
(59,277,l),
(134,277,l),
(134,212,l),
(184,212,l),
(184,327,l),
(9,327,l),
(9,137,l),
(84,137,l),
(84,87,l)
);
}
);
width = 193;
}
);
note = uni061F;
unicode = 1567;
},
{
glyphname = exclam;
lastChange = "2024-07-18 07:53:55 +0000";
layers = (
{
hints = (
{
horizontal = 1;
place = (99,205);
type = Stem;
},
{
horizontal = 1;
place = (0,57);
type = Stem;
},
{
place = (46,50);
type = Stem;
}
);
layerId = m01;
shapes = (
{
closed = 1;
nodes = (
(94,100,l),
(94,305,l),
(44,305,l),
(44,100,l)
);
},
{
closed = 1;
nodes = (
(94,0,l),
(94,50,l),
(44,50,l),
(44,0,l)
);
}
);
width = 138;
}
);
note = exclam;
unicode = 33;
},
{
glyphname = parenleft;
lastChange = "2024-07-18 07:53:55 +0000";
layers = (
{
hints = (
{
horizontal = 1;
place = (-91,436);
type = Stem;
},
{
place = (20,43);
type = Stem;
}
);
layerId = m01;
shapes = (
{
closed = 1;
nodes = (
(133,-91,l),
(87,-27,o),
(63,49,o),
(63,125,cs),
(63,205,o),
(86,282,o),
(133,345,c),
(94,345,l),
(46,288,o),
(20,211,o),
(20,125,cs),
(20,40,o),
(46,-36,o),
(94,-91,c)
);
}
);
width = 148;
}
);
note = parenleft;
unicode = 40;
},
{
glyphname = parenright;
lastChange = "2024-07-18 07:53:55 +0000";
layers = (
{
hints = (
{
horizontal = 1;
place = (-91,436);
type = Stem;
},
{
place = (86,42);
type = Stem;
}
);
layerId = m01;
shapes = (
{
closed = 1;
nodes = (
(55,-91,l),
(102,-36,o),
(128,39,o),
(128,125,cs),
(128,206,o),
(105,285,o),
(55,345,c),
(15,345,l),
(62,282,o),
(86,205,o),
(86,125,cs),
(86,46,o),
(61,-30,o),
(16,-91,c)
);
}
);
width = 148;
}
);
note = parenright;
unicode = 41;
},
{
glyphname = bracketleft;
lastChange = "2024-07-18 07:53:55 +0000";
layers = (
{
hints = (
{
horizontal = 1;
place = (314,33);
type = Stem;
},
{
horizontal = 1;
place = (-79,34);
type = Stem;
},
{
place = (39,39);
type = Stem;
}
);
layerId = m01;
shapes = (
{
closed = 1;
nodes = (
(151,314,l),
(151,347,l),
(39,347,l),
(39,-79,l),
(151,-79,l),
(151,-45,l),
(78,-45,l),
(78,314,l)
);
}
);
width = 163;
}
);
note = bracketleft;
unicode = 91;
},
{
glyphname = bracketright;
lastChange = "2024-07-18 07:53:55 +0000";
layers = (
{
hints = (
{
horizontal = 1;
place = (314,33);
type = Stem;
},
{
horizontal = 1;
place = (-79,34);
type = Stem;
},
{
place = (86,39);
type = Stem;
}
);
layerId = m01;
shapes = (
{
closed = 1;
nodes = (
(86,314,l),
(86,-45,l),
(13,-45,l),
(13,-79,l),
(125,-79,l),
(125,347,l),
(13,347,l),
(13,314,l)
);
}
);
width = 164;
}
);
note = bracketright;
unicode = 93;
},
{
glyphname = guillemotleft;
lastChange = "2024-07-18 07:53:55 +0000";
layers = (
{
hints = (
{
horizontal = 1;
place = (0,21);
target = up;
type = BottomGhost;
},
{
place = (20,209);
type = Stem;
}
);
layerId = m01;
shapes = (
{
closed = 1;
nodes = (
(104,205,l),
(20,105,l),
(20,99,l),
(104,0,l),
(133,17,l),
(62,103,l),
(133,188,l)
);
},
{
closed = 1;
nodes = (
(201,205,l),
(117,105,l),
(117,99,l),
(201,0,l),
(229,17,l),
(159,103,l),
(229,188,l)
);
}
);
width = 249;
}
);
note = guillemotleft;
unicode = 171;
},
{
glyphname = guillemotright;
lastChange = "2024-07-18 07:53:55 +0000";
layers = (
{
hints = (
{
horizontal = 1;
place = (0,21);
target = up;
type = BottomGhost;
},
{
place = (20,209);
type = Stem;
}
);
layerId = m01;
shapes = (
{
closed = 1;
nodes = (
(145,205,l),
(116,188,l),
(186,103,l),
(116,17,l),
(145,0,l),
(229,99,l),
(229,105,l)
);
},
{
closed = 1;
nodes = (
(48,205,l),
(20,188,l),
(90,103,l),
(20,17,l),
(48,0,l),
(132,99,l),
(132,105,l)
);
}
);
width = 249;
}
);
note = guillemotright;
unicode = 187;
},
{
glyphname = asterisk;
lastChange = "2024-07-18 07:53:55 +0000";
layers = (
{
hints = (
{
horizontal = 1;
place = (224,90);
type = Stem;
},
{
place = (90,30);
type = Stem;
}
);
layerId = m01;
shapes = (
{
closed = 1;
nodes = (
(42,161,l),
(75,143,l),
(105,207,l),
(137,143,l),
(169,161,l),
(127,220,l),
(194,227,l),
(189,260,l),
(117,243,l),
(123,313,l),
(87,313,l),
(93,243,l),
(23,260,l),
(17,227,l),
(84,220,l)
);
}
);
width = 211;
}
);
note = asterisk;
unicode = 42;
},
{
glyphname = plus;
lastChange = "2024-07-18 07:53:55 +0000";
layers = (
{
hints = (
{
horizontal = 1;
place = (136,32);
type = Stem;
},
{
place = (127,32);
type = Stem;
}
);
layerId = m01;
shapes = (
{
closed = 1;
nodes = (
(32,168,l),
(32,136,l),
(127,136,l),
(127,37,l),
(159,37,l),
(159,136,l),
(255,136,l),
(255,168,l),
(159,168,l),
(159,267,l),
(127,267,l),
(127,168,l)
);
}
);
width = 287;
}
);
note = plus;
unicode = 43;
},
{
glyphname = minus;
lastChange = "2024-07-18 07:53:55 +0000";
layers = (
{
hints = (
{
horizontal = 1;
place = (136,32);
type = Stem;
},
{
place = (32,223);
type = Stem;
}
);
layerId = m01;
shapes = (
{
closed = 1;
nodes = (
(255,168,l),
(32,168,l),
(32,136,l),
(255,136,l)
);
}
);
width = 287;
}
);
note = minus;
unicode = 8722;
},
{
glyphname = equal;
lastChange = "2024-07-18 07:53:55 +0000";
layers = (
{
hints = (
{
horizontal = 1;
place = (184,31);
type = Stem;
},
{
horizontal = 1;
place = (89,32);
type = Stem;
},
{
place = (36,215);
type = Stem;
}
);
layerId = m01;
shapes = (
{
closed = 1;
nodes = (
(251,184,l),
(251,215,l),
(36,215,l),
(36,184,l)
);
},
{
closed = 1;
nodes = (
(251,89,l),
(251,121,l),
(36,121,l),
(36,89,l)
);
}
);
width = 287;
}
);
note = equal;
unicode = 61;
},
{
glyphname = slash;
lastChange = "2024-07-18 07:53:55 +0000";
layers = (
{
hints = (
{
horizontal = 1;
place = (-61,408);
type = Stem;
},
{
place = (22,187);
type = Stem;
}
);
layerId = m01;
shapes = (
{
closed = 1;
nodes = (
(57,-61,l),
(209,347,l),
(174,347,l),
(22,-61,l)
);
}
);
width = 230;
}
);
note = slash;
unicode = 47;
},
{
glyphname = backslash;
lastChange = "2024-07-18 07:53:55 +0000";
layers = (
{
hints = (
{
horizontal = 1;
place = (357,-20);
target = down;
type = TopGhost;
},
{
horizontal = 1;
place = (0,21);
target = up;
type = BottomGhost;
},
{
place = (6,173);
type = Stem;
}
);
layerId = m01;
shapes = (
{
closed = 1;
nodes = (
(179,0,l),
(46,357,l),
(6,357,l),
(139,0,l)
);
}
);
width = 184;
}
);
note = backslash;
unicode = 92;
},
{
glyphname = hyphen;
lastChange = "2024-07-18 07:53:55 +0000";
layers = (
{
hints = (
{
horizontal = 1;
place = (116,37);
type = Stem;
},
{
place = (21,120);
type = Stem;
}
);
layerId = m01;
shapes = (
{
closed = 1;
nodes = (
(141,116,l),
(141,153,l),
(21,153,l),
(21,116,l)
);
}
);
width = 161;
}
);
note = hyphen;
unicode = 45;
},
{
glyphname = degree;
lastChange = "2024-07-18 07:53:55 +0000";
layers = (
{
hints = (
{
horizontal = 1;
place = (274,26);
type = Stem;
},
{
horizontal = 1;
place = (163,25);
type = Stem;
},
{
place = (140,25);
type = Stem;
},
{
place = (28,26);
type = Stem;
}
);
layerId = m01;
shapes = (
{
closed = 1;
nodes = (
(165,272,o),
(135,300,o),
(97,300,cs),
(59,300,o),
(28,269,o),
(28,231,cs),
(28,190,o),
(59,163,o),
(97,163,cs),
(135,163,o),
(165,194,o),
(165,231,cs)
);
},
{
closed = 1;
nodes = (
(140,206,o),
(120,188,o),
(97,188,cs),
(73,188,o),
(54,206,o),
(54,231,cs),
(54,257,o),
(73,274,o),
(97,274,cs),
(120,274,o),
(140,257,o),
(140,231,cs)
);
}
);
width = 193;
}
);
note = degree;
unicode = 176;
},
{
glyphname = ellipsis;
lastChange = "2024-07-18 07:53:55 +0000";
layers = (
{
hints = (
{
horizontal = 1;
place = (-7,66);
type = Stem;
},
{
place = (254,59);
type = Stem;
},
{
place = (146,59);
type = Stem;
},
{
place = (37,59);
type = Stem;
}
);
layerId = m01;
shapes = (
{
closed = 1;
nodes = (
(375,0,l),
(375,100,l),
(275,100,l),
(275,0,l)
);
},
{
closed = 1;
nodes = (
(250,0,l),
(250,100,l),
(150,100,l),
(150,0,l)
);
},
{
closed = 1;
nodes = (
(125,0,l),
(125,100,l),
(25,100,l),
(25,0,l)
);
}
);
width = 400;
}
);
note = ellipsis;
unicode = 8230;
},
{
glyphname = uni25CC;
lastChange = "2024-07-18 07:53:55 +0000";
layers = (
{
anchors = (
{
name = top;
pos = (153,0);
},
{
name = top_;
pos = (153,0);
},
{
name = top__;
pos = (153,0);
},
{
name = top___;
pos = (150,285);
}
);
hints = (
{
horizontal = 1;
place = (244,26);
type = Stem;
},
{
horizontal = 1;
place = (235,26);
type = Stem;
},
{
horizontal = 1;
place = (212,26);
type = Stem;
},
{
horizontal = 1;
place = (175,26);
type = Stem;
},
{
horizontal = 1;
place = (133,26);
type = Stem;
},
{
horizontal = 1;
place = (91,26);
type = Stem;
},
{
horizontal = 1;
place = (54,26);
type = Stem;
},
{
horizontal = 1;
place = (30,26);
type = Stem;
},
{
horizontal = 1;
place = (21,26);
type = Stem;
},
{
place = (247,26);
type = Stem;
},
{
place = (238,26);
type = Stem;
},
{
place = (215,26);
type = Stem;
},
{
place = (178,26);
type = Stem;
},
{
place = (136,26);
type = Stem;
},
{
place = (94,26);
type = Stem;
},
{
place = (57,26);
type = Stem;
},
{
place = (33,26);
type = Stem;
},
{
place = (24,26);
type = Stem;
}
);
layerId = m01;
shapes = (
{
closed = 1;
nodes = (
(142,270,o),
(136,264,o),
(136,257,cs),
(136,250,o),
(142,244,o),
(149,244,cs),
(156,244,o),
(162,250,o),
(162,257,cs),
(162,264,o),
(156,270,o),
(149,270,cs)
);
},
{
closed = 1;
nodes = (
(100,261,o),
(94,255,o),
(94,248,cs),
(94,241,o),
(100,235,o),
(107,235,cs),
(114,235,o),
(120,241,o),
(120,248,cs),
(120,255,o),
(114,261,o),
(107,261,cs)
);
},
{
closed = 1;
nodes = (
(184,261,o),
(178,255,o),
(178,248,cs),
(178,241,o),
(184,235,o),
(191,235,cs),
(198,235,o),
(204,241,o),
(204,248,cs),
(204,255,o),
(198,261,o),
(191,261,cs)
);
},
{
closed = 1;
nodes = (
(57,218,o),
(63,212,o),
(70,212,cs),
(77,212,o),
(83,218,o),
(83,225,cs),
(83,232,o),
(77,238,o),
(70,238,cs),
(63,238,o),
(57,232,o),
(57,225,cs)
);
},
{
closed = 1;
nodes = (
(215,218,o),
(221,212,o),
(228,212,cs),
(235,212,o),
(241,218,o),
(241,225,cs),
(241,232,o),
(235,238,o),
(228,238,cs),
(221,238,o),
(215,232,o),
(215,225,cs)
);
},
{
closed = 1;
nodes = (
(33,181,o),
(39,175,o),
(46,175,cs),
(53,175,o),
(59,181,o),
(59,188,cs),
(59,195,o),
(53,201,o),
(46,201,cs),
(39,201,o),
(33,195,o),
(33,188,cs)
);
},
{
closed = 1;
nodes = (
(238,181,o),
(244,175,o),
(251,175,cs),
(258,175,o),
(264,181,o),
(264,188,cs),
(264,195,o),
(258,201,o),
(251,201,cs),
(244,201,o),
(238,195,o),
(238,188,cs)
);
},
{
closed = 1;
nodes = (
(24,139,o),
(30,133,o),
(37,133,cs),
(44,133,o),
(50,139,o),
(50,146,cs),
(50,153,o),
(44,159,o),
(37,159,cs),
(30,159,o),
(24,153,o),
(24,146,cs)
);
},
{
closed = 1;
nodes = (
(247,139,o),
(253,133,o),
(260,133,cs),
(267,133,o),
(273,139,o),
(273,146,cs),
(273,153,o),
(267,159,o),
(260,159,cs),
(253,159,o),
(247,153,o),
(247,146,cs)
);
},
{
closed = 1;
nodes = (
(33,97,o),
(39,91,o),
(46,91,cs),
(53,91,o),
(59,97,o),
(59,104,cs),
(59,111,o),
(53,117,o),
(46,117,cs),
(39,117,o),
(33,111,o),
(33,104,cs)
);
},
{
closed = 1;
nodes = (
(238,97,o),
(244,91,o),
(251,91,cs),
(258,91,o),
(264,97,o),
(264,104,cs),
(264,111,o),
(258,117,o),
(251,117,cs),
(244,117,o),
(238,111,o),
(238,104,cs)
);
},
{
closed = 1;
nodes = (
(57,60,o),
(63,54,o),
(70,54,cs),
(77,54,o),
(83,60,o),
(83,67,cs),
(83,74,o),
(77,80,o),
(70,80,cs),
(63,80,o),
(57,74,o),
(57,67,cs)
);
},
{
closed = 1;
nodes = (
(215,60,o),
(221,54,o),
(228,54,cs),
(235,54,o),
(241,60,o),
(241,67,cs),
(241,74,o),
(235,80,o),
(228,80,cs),
(221,80,o),
(215,74,o),
(215,67,cs)
);
},
{
closed = 1;
nodes = (
(100,56,o),
(94,50,o),
(94,43,cs),
(94,36,o),
(100,30,o),
(107,30,cs),
(114,30,o),
(120,36,o),
(120,43,cs),
(120,50,o),
(114,56,o),
(107,56,cs)
);
},
{
closed = 1;
nodes = (
(184,56,o),
(178,50,o),
(178,43,cs),
(178,36,o),
(184,30,o),
(191,30,cs),
(198,30,o),
(204,36,o),
(204,43,cs),
(204,50,o),
(198,56,o),
(191,56,cs)
);
},
{
closed = 1;
nodes = (
(142,47,o),
(136,41,o),
(136,34,cs),
(136,27,o),
(142,21,o),
(149,21,cs),
(156,21,o),
(162,27,o),
(162,34,cs),
(162,41,o),
(156,47,o),
(149,47,cs)
);
}
);
width = 297;
}
);
note = uni25CC;
unicode = 9676;
},
{
glyphname = uni2670;
lastChange = "2024-07-18 07:53:55 +0000";
layers = (
{
hints = (
{
horizontal = 1;
place = (336,42);
type = Stem;
},
{
horizontal = 1;
place = (254,43);
type = Stem;
},
{
horizontal = 1;
place = (212,42);
type = Stem;
},
{
horizontal = 1;
place = (169,43);
type = Stem;
},
{
horizontal = 1;
place = (-46,42);
type = Stem;
},
{
place = (344,42);
type = Stem;
},
{
place = (240,43);
type = Stem;
},
{
place = (156,42);
type = Stem;
},
{
place = (52,42);
type = Stem;
}
);
layerId = m01;
shapes = (
{
closed = 1;
nodes = (
(146,0,l),
(146,42,l),
(103,42,l),
(103,0,l)
);
},
{
closed = 1;
nodes = (
(146,215,l),
(146,42,l),
(188,42,l),
(188,215,l),
(230,215,l),
(230,258,l),
(292,258,l),
(292,300,l),
(230,300,l),
(230,343,l),
(188,343,l),
(188,382,l),
(146,382,l),
(146,343,l),
(104,343,l),
(104,300,l),
(42,300,l),
(42,258,l),
(104,258,l),
(104,215,l)
);
},
{
closed = 1;
nodes = (
(188,42,l),
(188,0,l),
(231,0,l),
(231,42,l)
);
},
{
closed = 1;
nodes = (
(0,258,l),
(0,215,l),
(42,215,l),
(42,258,l)
);
},
{
closed = 1;
nodes = (
(0,343,l),
(0,300,l),
(42,300,l),
(42,343,l)
);
},
{
closed = 1;
nodes = (
(104,425,l),
(104,382,l),
(146,382,l),
(146,425,l)
);
},
{
closed = 1;
nodes = (
(292,258,l),
(292,215,l),
(334,215,l),
(334,258,l)
);
},
{
closed = 1;
nodes = (
(188,424,l),
(188,382,l),
(231,382,l),
(231,424,l)
);
},
{
closed = 1;
nodes = (
(292,343,l),
(292,300,l),
(334,300,l),
(334,343,l)
);
}
);
width = 334;
}
);
note = uni2670;
unicode = 9840;
},
{
glyphname = uni2671;
lastChange = "2024-07-18 07:53:55 +0000";
layers = (
{
hints = (
{
horizontal = 1;
place = (363,-20);
target = down;
type = TopGhost;
},
{
horizontal = 1;
place = (169,36);
type = Stem;
},
{
place = (198,36);
type = Stem;
}
);
layerId = m01;
shapes = (
{
closed = 1;
nodes = (
(189,43,l),
(189,85,l),
(146,85,l),
(146,43,l)
);
},
{
closed = 1;
nodes = (
(189,43,l),
(189,0,l),
(231,0,l),
(231,43,l)
);
},
{
closed = 1;
nodes = (
(189,296,l),
(189,85,l),
(231,85,l),
(231,296,l),
(335,296,l),
(335,338,l),
(231,338,l),
(231,420,l),
(189,420,l),
(189,338,l),
(85,338,l),
(85,296,l)
);
},
{
closed = 1;
nodes = (
(231,85,l),
(231,43,l),
(274,43,l),
(274,85,l)
);
},
{
closed = 1;
nodes = (
(43,296,l),
(43,338,l),
(0,338,l),
(0,296,l)
);
},
{
closed = 1;
nodes = (
(43,296,l),
(43,253,l),
(85,253,l),
(85,296,l)
);
},
{
closed = 1;
nodes = (
(43,381,l),
(43,338,l),
(85,338,l),
(85,381,l)
);
},
{
closed = 1;
nodes = (
(146,463,l),
(146,420,l),
(188,420,l),
(188,463,l)
);
},
{
closed = 1;
nodes = (
(335,296,l),
(335,253,l),
(377,253,l),
(377,296,l)
);
},
{
closed = 1;
nodes = (
(231,463,l),
(231,421,l),
(274,421,l),
(274,463,l),
(232,463,l),
(232,505,l),
(189,505,l),
(189,463,l)
);
},
{
closed = 1;
nodes = (
(335,381,l),
(335,338,l),
(377,338,l),
(377,381,l)
);
},
{
closed = 1;
nodes = (
(377,338,l),
(377,296,l),
(420,296,l),
(420,338,l)
);
}
);
width = 420;
}
);
note = uni2671;
unicode = 9841;
},
{
glyphname = uni0732.above;
kernLeft = "1";
kernRight = "1";
layers = (
{
anchors = (
{
name = _top;
pos = (13,263);
}
);
hints = (
{
horizontal = 1;
place = (276,56);
type = Stem;
},
{
place = (-12,34);
type = Stem;
}
);
layerId = m01;
shapes = (
{
closed = 1;
nodes = (
(26,334,l),
(1,334,l),
(1,283,l),
(26,283,l)
);
}
);
width = 27;
}
);
note = uni0732.above;
},
{
glyphname = uni0732.below;
kernLeft = "1";
kernRight = "1";
layers = (
{
anchors = (
{
name = _bottom;
pos = (13,16);
}
);
hints = (
{
horizontal = 1;
place = (-60,56);
type = Stem;
},
{
place = (-22,34);
type = Stem;
}
);
layerId = m01;
shapes = (
{
closed = 1;
nodes = (
(26,-4,l),
(1,-4,l),
(1,-55,l),
(26,-55,l)
);
}
);
width = 27;
}
);
note = uni0732.below;
},
{
glyphname = SAM4in;
lastChange = "2024-07-18 07:53:55 +0000";
layers = (
{
hints = (
{
horizontal = 1;
place = (408,17);
type = Stem;
},
{
place = (0,137);
type = Stem;
}
);
layerId = m01;
shapes = (
{
closed = 1;
nodes = (
(128,394,o),
(137,404,o),
(137,416,cs),
(137,428,o),
(128,437,o),
(116,437,cs),
(107,437,o),
(100,432,o),
(96,425,c),
(0,425,l),
(0,408,l),
(96,408,l),
(99,400,o),
(107,394,o),
(116,394,cs)
);
}
);
width = 163;
}
);
note = SAM4in;
},
{
glyphname = SAM4xout;
lastChange = "2024-07-18 07:53:55 +0000";
layers = (
{
hints = (
{
horizontal = 1;
place = (408,17);
type = Stem;
},
{
place = (26,137);
type = Stem;
}
);
layerId = m01;
shapes = (
{
closed = 1;
nodes = (
(57,394,o),
(65,400,o),
(68,408,c),
(163,408,l),
(163,425,l),
(67,425,l),
(64,432,o),
(56,437,o),
(48,437,cs),
(36,437,o),
(26,428,o),
(26,416,cs),
(26,404,o),
(36,394,o),
(48,394,cs)
);
}
);
width = 163;
}
);
note = SAM4xout;
},
{
glyphname = SAMdot;
lastChange = "2024-07-18 07:53:55 +0000";
layers = (
{
hints = (
{
horizontal = 1;
place = (408,17);
type = Stem;
},
{
place = (0,235);
type = Stem;
}
);
layerId = m01;
shapes = (
{
closed = 1;
nodes = (
(125,394,o),
(133,400,o),
(136,408,c),
(235,408,l),
(235,425,l),
(135,425,l),
(132,432,o),
(124,437,o),
(116,437,cs),
(107,437,o),
(100,432,o),
(96,425,c),
(0,425,l),
(0,408,l),
(96,408,l),
(99,400,o),
(107,394,o),
(116,394,cs)
);
}
);
width = 235;
}
);
note = SAMdot;
},
{
glyphname = SAMline;
lastChange = "2024-07-18 07:53:55 +0000";
layers = (
{
hints = (
{
horizontal = 1;
place = (408,17);
type = Stem;
},
{
place = (0,118);
type = Stem;
}
);
layerId = m01;
shapes = (
{
closed = 1;
nodes = (
(118,408,l),
(118,425,l),
(0,425,l),
(0,408,l)
);
}
);
width = 118;
}
);
note = SAMline;
},
{
glyphname = uni07200710.fina;
lastChange = "2024-07-18 07:53:55 +0000";
layers = (
{
anchors = (
{
name = bottom_1;
pos = (506,-20);
},
{
name = bottom_2;
pos = (253,-20);
},
{
name = caret_1;
pos = (328.5,0);
},
{
name = top_1;
pos = (506,525);
},
{
name = top_2;
pos = (253,323);
}
);
hints = (
{
horizontal = 1;
place = (201,101);
type = Stem;
},
{
horizontal = 1;
place = (0,101);
type = Stem;
},
{
place = (455,101);
type = Stem;
},
{
place = (253,101);
type = Stem;
},
{
place = (51,101);
type = Stem;
}
);
layerId = m01;
shapes = (
{
closed = 1;
nodes = (
(455,301,l),
(51,302,l),
(51,0,l),
(152,0,l),
(152,201,l),
(253,201,l),
(253,0,l),
(658,0,l),
(658,101,l),
(556,101,l),
(556,201,l),
(658,201,l),
(658,302,l),
(556,302,l),
(556,503,l),
(455,503,l)
);
},
{
closed = 1;
nodes = (
(354,201,l),
(455,201,l),
(455,101,l),
(354,101,l)
);
}
);
width = 657;
}
);
note = uni07200710.fina;
},
{
glyphname = uni072C0710.fina;
lastChange = "2024-07-18 07:53:55 +0000";
layers = (
{
anchors = (
{
name = bottom_1;
pos = (492,-20);
},
{
name = bottom_2;
pos = (253,-20);
},
{
name = caret_1;
pos = (397,0);
},
{
name = top_1;
pos = (492,525);
},
{
name = top_2;
pos = (253,323);
}
);
hints = (
{
horizontal = 1;
place = (100,102);
type = Stem;
},
{
place = (542,101);
type = Stem;
},
{
place = (354,88);
type = Stem;
},
{
place = (152,101);
type = Stem;
}
);
layerId = m01;
shapes = (
{
closed = 1;
nodes = (
(354,202,l),
(354,100,l),
(442,100,l),
(442,202,l)
);
},
{
closed = 1;
nodes = (
(744,101,l),
(795,101,l),
(795,0,l),
(643,0,l),
(643,202,l),
(542,202,l),
(542,0,l),
(253,0,l),
(253,202,l),
(152,202,l),
(152,0,l),
(51,0,l),
(51,303,l),
(441,303,l),
(441,505,l),
(542,505,l),
(542,303,l),
(744,303,l)
);
}
);
width = 794;
}
);
note = uni072C0710.fina;
},
{
glyphname = uni07200710.isol;
lastChange = "2024-07-18 07:53:55 +0000";
layers = (
{
anchors = (
{
name = bottom_1;
pos = (505,-20);
},
{
name = bottom_2;
pos = (247,-20);
},
{
name = caret_1;
pos = (329,0);
},
{
name = top_1;
pos = (505,525);
},
{
name = top_2;
pos = (247,322);
}
);
hints = (
{
horizontal = 1;
place = (201,101);
type = Stem;
},
{
horizontal = 1;
place = (0,101);
type = Stem;
},
{
place = (455,101);
type = Stem;
},
{
place = (253,101);
type = Stem;
},
{
place = (51,101);
type = Stem;
}
);
layerId = m01;
shapes = (
{
closed = 1;
nodes = (
(455,301,l),
(51,302,l),
(51,0,l),
(152,0,l),
(152,201,l),
(253,201,l),
(253,0,l),
(556,0,l),
(556,201,l),
(658,201,l),
(658,302,l),
(556,302,l),
(556,503,l),
(455,503,l)
);
},
{
closed = 1;
nodes = (
(354,201,l),
(455,201,l),
(455,101,l),
(354,101,l)
);
}
);
width = 658;
}
);
note = uni07200710.isol;
},
{
glyphname = uni072C0710.isol;
lastChange = "2024-07-18 07:53:55 +0000";
layers = (
{
anchors = (
{
name = bottom_1;
pos = (492,-20);
},
{
name = bottom_2;
pos = (238,-20);
},
{
name = caret_1;
pos = (372,0);
},
{
name = top_1;
pos = (492,525);
},
{
name = top_2;
pos = (238,323);
}
);
hints = (
{
horizontal = 1;
place = (100,102);
type = Stem;
},
{
place = (542,101);
type = Stem;
},
{
place = (354,87);
type = Stem;
},
{
place = (152,101);
type = Stem;
}
);
layerId = m01;
shapes = (
{
closed = 1;
nodes = (
(354,202,l),
(354,100,l),
(441,100,l),
(441,202,l)
);
},
{
closed = 1;
nodes = (
(542,303,l),
(744,303,l),
(744,0,l),
(643,0,l),
(643,202,l),
(542,202,l),
(542,0,l),
(253,0,l),
(253,202,l),
(152,202,l),
(152,0,l),
(51,0,l),
(51,303,l),
(441,303,l),
(441,505,l),
(542,505,l)
);
}
);
width = 744;
}
);
note = uni072C0710.isol;
},
{
category = Mark;
glyphname = uni1DFA;
layers = (
{
hints = (
{
horizontal = 1;
place = (-108,57);
type = Stem;
},
{
place = (-25,51);
type = Stem;
}
);
layerId = m01;
shapes = (
{
closed = 1;
nodes = (
(16,-108,o),
(26,-98,o),
(26,-80,cs),
(26,-61,o),
(16,-51,o),
(0,-51,cs),
(-16,-51,o),
(-25,-61,o),
(-25,-80,cs),
(-25,-100,o),
(-14,-108,o),
(0,-108,cs)
);
}
);
width = 0;
}
);
note = uni1DFA;
subCategory = Nonspacing;
unicode = 7674;
},
{
category = Mark;
glyphname = uni1DF8;
layers = (
{
layerId = m01;
shapes = (
{
closed = 1;
nodes = (
(16,312,o),
(26,322,o),
(26,340,cs),
(26,359,o),
(16,369,o),
(0,369,cs),
(-16,369,o),
(-25,359,o),
(-25,340,cs),
(-25,320,o),
(-14,312,o),
(0,312,cs)
);
}
);
width = 0;
}
);
note = uni1DF8;
subCategory = Nonspacing;
unicode = 7672;
},
{
glyphname = uni072A0308.fina;
lastChange = "2024-07-18 07:53:55 +0000";
layers = (
{
anchors = (
{
name = bottom;
pos = (203,-20);
},
{
name = top;
pos = (203,323);
}
);
hints = (
{
horizontal = 1;
place = (354,101);
type = Stem;
},
{
horizontal = 1;
place = (202,101);
type = Stem;
},
{
horizontal = 1;
place = (0,102);
type = Stem;
},
{
place = (253,101);
type = Stem;
},
{
place = (219,101);
type = Stem;
},
{
place = (84,101);
type = Stem;
},
{
place = (51,134);
type = Stem;
}
);
layerId = m01;
shapes = (
{
closed = 1;
nodes = (
(185,455,l),
(84,455,l),
(84,354,l),
(185,354,l)
);
},
{
closed = 1;
nodes = (
(51,202,l),
(253,202,l),
(253,0,l),
(404,0,l),
(404,101,l),
(354,102,l),
(354,303,l),
(51,303,l)
);
},
{
closed = 1;
nodes = (
(320,455,l),
(219,455,l),
(219,354,l),
(320,354,l)
);
}
);
width = 404;
}
);
note = uni072Auni0308.fina;
},
{
glyphname = uni072A0308.isol;
lastChange = "2024-07-18 07:53:55 +0000";
layers = (
{
anchors = (
{
name = bottom;
pos = (203,-20);
},
{
name = top;
pos = (203,323);
}
);
hints = (
{
horizontal = 1;
place = (354,101);
type = Stem;
},
{
horizontal = 1;
place = (202,101);
type = Stem;
},
{
horizontal = 1;
place = (0,21);
target = up;
type = BottomGhost;
},
{
place = (253,101);
type = Stem;
},
{
place = (219,101);
type = Stem;
},
{
place = (84,101);
type = Stem;
},
{
place = (51,134);
type = Stem;
}
);
layerId = m01;
shapes = (
{
closed = 1;
nodes = (
(185,455,l),
(84,455,l),
(84,354,l),
(185,354,l)
);
},
{
closed = 1;
nodes = (
(51,202,l),
(253,202,l),
(253,0,l),
(354,0,l),
(354,303,l),
(51,303,l)
);
},
{
closed = 1;
nodes = (
(320,455,l),
(219,455,l),
(219,354,l),
(320,354,l)
);
}
);
width = 354;
}
);
note = uni072Auni0308.isol;
},
{
glyphname = zero;
lastChange = "2024-07-18 07:53:55 +0000";
layers = (
{
layerId = m01;
shapes = (
{
closed = 1;
nodes = (
(354,404,l),
(51,404,l),
(51,0,l),
(354,0,l)
);
},
{
closed = 1;
nodes = (
(152,101,l),
(152,303,l),
(253,303,l),
(253,101,l)
);
}
);
width = 405;
}
);
unicode = 48;
},
{
glyphname = "1";
lastChange = "2024-07-18 07:53:55 +0000";
layers = (
{
layerId = m01;
shapes = (
{
closed = 1;
nodes = (
(51,303,l),
(73,303,l),
(73,0,l),
(189,0,l),
(189,404,l),
(51,404,l)
);
}
);
width = 240;
}
);
unicode = 49;
},
{
glyphname = "2";
lastChange = "2024-07-18 07:53:55 +0000";
layers = (
{
layerId = m01;
shapes = (
{
closed = 1;
nodes = (
(51,303,l),
(253,303,l),
(253,245,l),
(51,245,l),
(51,0,l),
(354,0,l),
(354,101,l),
(152,101,l),
(152,159,l),
(354,159,l),
(354,404,l),
(51,404,l)
);
}
);
width = 405;
}
);
unicode = 50;
},
{
glyphname = "3";
lastChange = "2024-07-18 07:53:55 +0000";
layers = (
{
layerId = m01;
shapes = (
{
closed = 1;
nodes = (
(354,404,l),
(51,404,l),
(51,303,l),
(253,303,l),
(253,252,l),
(67,252,l),
(67,151,l),
(253,151,l),
(253,101,l),
(51,101,l),
(51,0,l),
(354,0,l)
);
}
);
width = 405;
}
);
unicode = 51;
},
{
glyphname = "4";
lastChange = "2024-07-18 07:53:55 +0000";
layers = (
{
layerId = m01;
shapes = (
{
closed = 1;
nodes = (
(152,404,l),
(51,404,l),
(51,163,l),
(253,163,l),
(253,0,l),
(354,0,l),
(354,404,l),
(253,404,l),
(253,264,l),
(152,264,l)
);
}
);
width = 405;
}
);
unicode = 52;
},
{
glyphname = "5";
lastChange = "2024-07-18 07:53:55 +0000";
layers = (
{
layerId = m01;
shapes = (
{
closed = 1;
nodes = (
(51,404,l),
(51,159,l),
(253,159,l),
(253,101,l),
(51,101,l),
(51,0,l),
(354,0,l),
(354,245,l),
(152,245,l),
(152,303,l),
(354,303,l),
(354,404,l)
);
}
);
width = 405;
}
);
unicode = 53;
},
{
glyphname = "6";
lastChange = "2024-07-18 07:53:55 +0000";
layers = (
{
layerId = m01;
shapes = (
{
closed = 1;
nodes = (
(152,101,l),
(152,165,l),
(253,165,l),
(253,101,l)
);
},
{
closed = 1;
nodes = (
(51,0,l),
(354,0,l),
(354,239,l),
(152,239,l),
(152,303,l),
(354,303,l),
(354,404,l),
(51,404,l)
);
}
);
width = 405;
}
);
unicode = 54;
},
{
glyphname = "7";
lastChange = "2024-07-18 07:53:55 +0000";
layers = (
{
layerId = m01;
shapes = (
{
closed = 1;
nodes = (
(354,404,l),
(51,404,l),
(51,303,l),
(253,303,l),
(253,0,l),
(354,0,l)
);
}
);
width = 405;
}
);
unicode = 55;
},
{
glyphname = "8";
lastChange = "2024-07-18 07:53:55 +0000";
layers = (
{
layerId = m01;
shapes = (
{
closed = 1;
nodes = (
(354,404,l),
(51,404,l),
(51,0,l),
(354,0,l)
);
},
{
closed = 1;
nodes = (
(253,171,l),
(253,101,l),
(152,101,l),
(152,171,l)
);
},
{
closed = 1;
nodes = (
(253,303,l),
(253,233,l),
(152,233,l),
(152,303,l)
);
}
);
width = 405;
}
);
unicode = 56;
},
{
glyphname = "9";
lastChange = "2024-07-18 07:53:55 +0000";
layers = (
{
layerId = m01;
shapes = (
{
closed = 1;
nodes = (
(253,303,l),
(253,239,l),
(152,239,l),
(152,303,l)
);
},
{
closed = 1;
nodes = (
(354,404,l),
(51,404,l),
(51,165,l),
(253,165,l),
(253,101,l),
(51,101,l),
(51,0,l),
(354,0,l)
);
}
